<svg width="339" height="302" viewBox="0 0 339 302" fill="none" xmlns="http://www.w3.org/2000/svg">
<rect width="338.685" height="301.686" rx="44" fill="#D9D9D9" fill-opacity="0.3"/>
<path d="M137.025 81.8444H76.0888L70.185 115.37L70.6067 115.791C74.6831 111.715 79.0407 108.833 83.6795 107.147C88.3182 105.319 93.5895 104.405 99.4933 104.405C106.803 104.405 113.269 105.741 118.892 108.412C124.514 111.082 129.223 114.667 133.019 119.165C136.955 123.663 139.906 129.005 141.874 135.19C143.983 141.234 145.037 147.7 145.037 154.588C145.037 162.179 143.561 169.277 140.609 175.884C137.657 182.35 133.651 187.973 128.591 192.752C123.671 197.531 117.908 201.256 111.301 203.927C104.694 206.457 97.6659 207.652 90.2159 207.512C83.0469 207.512 76.1591 206.598 69.5524 204.771C63.0863 202.803 57.3231 199.851 52.2626 195.915C47.2022 191.979 43.1257 187.129 40.0333 181.366C37.0813 175.462 35.5351 168.645 35.3945 160.914H65.3354C66.0382 167.661 68.5685 173.073 72.9261 177.149C77.2836 181.085 82.8361 183.053 89.5833 183.053C93.5192 183.053 97.0334 182.28 100.126 180.734C103.359 179.047 106.03 176.938 108.138 174.408C110.387 171.737 112.074 168.715 113.199 165.341C114.464 161.827 115.096 158.243 115.096 154.588C115.096 150.793 114.534 147.208 113.409 143.835C112.285 140.461 110.598 137.509 108.349 134.979C106.1 132.449 103.429 130.481 100.337 129.075C97.2442 127.669 93.6598 126.967 89.5833 126.967C84.2417 126.967 79.8841 127.951 76.5105 129.918C73.1369 131.746 69.9741 134.698 67.0222 138.774H40.0333L54.582 57.1748H137.025V81.8444Z" fill="#92C022"/>
<path fill-rule="evenodd" clip-rule="evenodd" d="M241.234 49.9902C241.884 51.9377 240.964 56.0571 240.423 57.8734C241.18 57.5818 242.946 56.9989 243.96 56.9989C244.421 58.2085 244.191 63.2708 243.615 64.8296C245.181 62.511 249.567 58.9888 251.564 57.5175C251.871 58.1128 252.451 59.6026 252.313 60.8006C252.832 58.4389 258.015 54.9255 260.262 54.8101C261.045 56.5612 259.897 59.5332 259.225 60.8006C260.339 60.359 262.97 59.5219 264.582 59.7062C264.87 61.7224 262.566 69.96 260.262 72.3217C262.843 71.8148 266.253 73.0319 267.635 73.704C266.79 74.9521 264.617 77.7016 262.682 78.7155C265.389 77.9666 269.479 76.5268 272.244 76.8723C274.455 77.1488 276.122 75.7588 276.679 75.0291C276.852 78.5238 275.504 86.2733 268.73 89.3147C272.462 88.5774 274.548 87.7788 275.124 87.4716C274.97 89.123 274.179 93.0012 272.244 95.3052C273.81 94.0149 274.817 93.0012 275.124 92.6555C275.662 95.5164 276.288 102.068 274.491 105.386C277.14 103.427 282.958 101.123 285.262 101.239C285.493 103.428 285.09 109.534 283.822 111.492C285.435 111.078 288.066 111.742 289.179 112.126C287.855 115.774 283.165 123.37 275.009 124.568C278.188 124.799 280.136 126.2 280.712 126.872C279.212 128.695 275.147 132.331 270.779 132.456C270.732 133.094 270.677 133.73 270.613 134.363L273.165 134.188C272.689 135.379 271.533 137.566 269.977 139.038C269.887 139.565 269.791 140.09 269.688 140.613C271.347 141.024 272.497 141.597 273.165 142.31C273.857 143.047 274.682 143.04 275.009 142.944C274.205 143.926 271.988 145.441 268.585 145.364C260.677 174.588 233.973 196.087 202.247 196.087C164.295 196.087 133.529 165.321 133.529 127.369C133.529 89.4172 164.295 58.6511 202.247 58.6511C203.683 58.6511 205.109 58.6958 206.523 58.7826C206.67 58.4771 206.839 58.1727 207.035 57.8734C207.335 58.1546 207.601 58.4982 207.837 58.8766C208.754 58.9505 209.666 59.0418 210.573 59.1512C211.354 57.389 212.558 55.5005 214.338 54.048C215.021 56.5153 215.09 58.4548 214.932 59.821C215.016 59.8366 215.099 59.8513 215.183 59.8672C216.525 57.0283 219.063 53.1058 222.685 51.1497C225.097 54.1176 226.164 57.8738 226.395 59.3809C227.748 56.5985 231.381 50.8249 235.09 49.9902C236.111 52.4942 235.515 54.9752 235.09 55.9028C236.288 54.2024 239.194 50.6395 241.234 49.9902ZM202.247 85.8251C179.303 85.8251 160.703 104.425 160.703 127.369C160.703 150.313 179.303 168.913 202.247 168.913C225.191 168.913 243.791 150.313 243.791 127.369C243.791 104.425 225.191 85.8251 202.247 85.8251Z" fill="url(#paint0_linear_8_112)"/>
<path d="M292.411 76.461C294.033 82.5433 290.588 87.8192 286.27 90.7864C288.718 91.4725 291.162 93.1928 293.081 96.6505C287.59 101.484 279.288 97.336 277.478 93.1396C277.437 93.129 277.397 93.1199 277.357 93.1084C277.347 92.9938 277.338 92.8766 277.331 92.7571C277.266 92.5643 277.215 92.3723 277.179 92.1813C277.22 92.1563 277.263 92.1319 277.305 92.1069C277.212 86.5645 280.037 77.024 292.411 76.461Z" fill="url(#paint1_linear_8_112)"/>
<path d="M286.439 66.329C288.582 71.5624 282.897 76.5631 279.671 76.071C279.07 73.3241 279.582 67.5301 286.439 66.329Z" fill="url(#paint2_linear_8_112)"/>
<path d="M267.164 61.1952C268.926 57.699 274.567 51.8871 283.032 56.6083C280.753 64.1452 270.219 64.5594 267.164 61.1952Z" fill="url(#paint3_linear_8_112)"/>
<path d="M247.432 44.0366C251.019 47.9136 248.842 54.9303 246.313 55.8612C244.81 53.602 242.93 48.0741 247.432 44.0366Z" fill="url(#paint4_linear_8_112)"/>
<path d="M268.782 37.7917C270.823 40.5898 270.518 43.8923 269.205 46.5392C271.471 45.7973 274.278 45.9075 277.515 47.8499C275.302 54.4091 266.033 54.4786 263.443 51.437C263.475 51.3779 263.51 51.3187 263.545 51.2582C262.051 48.1223 261.062 41.1925 268.782 37.7917Z" fill="url(#paint5_linear_8_112)"/>
<path d="M228.929 42.4761C231.261 45.7591 228.928 50.8525 226.924 51.3089C226.009 49.4533 225.128 45.0888 228.929 42.4761Z" fill="url(#paint6_linear_8_112)"/>
<path d="M256.57 41.6033C258.402 45.8555 253.823 50.034 251.175 49.6792C250.642 47.4395 250.975 42.689 256.57 41.6033Z" fill="url(#paint7_linear_8_112)"/>
<path d="M280.809 36.1182C282.641 40.3703 278.062 44.5492 275.414 44.1947C274.881 41.955 275.213 37.204 280.809 36.1182Z" fill="url(#paint8_linear_8_112)"/>
<path d="M293.081 143.624C153.118 131.239 68.5559 194.079 43.7705 227.047L293.081 212.426V143.624Z" fill="#F5F5F5"/>
<path d="M191.32 170.156C191.622 170.415 191.773 170.738 191.773 171.126C191.773 171.471 191.644 171.772 191.385 172.031L183.951 180.047C176.797 188.45 168.738 198.966 159.775 211.592C157.49 215.428 153.569 220.125 148.01 225.685C145.079 228.658 141.804 231.179 138.184 233.248C134.607 235.316 131.289 236.351 128.229 236.351C127.582 236.351 126.85 235.963 126.031 235.187C125.212 234.411 124.803 233.312 124.803 231.89C124.803 229.994 126.074 227.775 128.617 225.232C131.116 222.733 134.068 220.599 137.473 218.832C140.877 217.066 143.765 216.182 146.135 216.182H146.393C154.538 206.744 159.559 200.969 161.455 198.858L171.733 187.545C171.777 187.502 171.82 187.438 171.863 187.351C171.949 187.265 172.078 187.114 172.251 186.899C172.595 186.468 172.725 186.252 172.638 186.252C172.552 186.252 172.186 186.554 171.54 187.157L162.166 196.337C150.789 207.498 142.493 213.079 137.279 213.079C136.029 213.079 134.822 212.584 133.659 211.592C132.538 210.601 131.978 209.201 131.978 207.391C131.978 203.943 135.146 199.052 141.481 192.717L158.74 177.332C160.809 175.392 161.843 174.121 161.843 173.518C161.843 173.345 161.714 173.259 161.455 173.259C161.197 173.259 160.572 173.345 159.581 173.518C158.589 173.69 157.038 174.121 154.926 174.811C152.858 175.457 150.66 176.297 148.333 177.332C146.049 178.366 143.398 179.874 140.382 181.857C137.408 183.839 134.564 186.08 131.849 188.58C131.418 189.183 130.944 189.485 130.427 189.485H130.233C130.06 189.441 129.974 189.334 129.974 189.161C129.974 188.73 130.297 188.192 130.944 187.545C134.779 182.029 139.369 177.526 144.713 174.035C150.057 170.544 154.862 168.799 159.128 168.799C160.938 168.799 162.597 169.294 164.106 170.286C165.614 171.234 166.368 172.85 166.368 175.134C166.368 176.728 165.398 178.775 163.459 181.275C161.52 183.731 159.15 186.231 156.348 188.773C153.59 191.316 150.811 193.794 148.01 196.207C141.33 202.025 137.99 205.818 137.99 207.585C137.99 207.671 138.184 207.714 138.572 207.714C139.003 207.714 139.865 207.391 141.157 206.744C142.493 206.098 144.045 205.171 145.812 203.965C147.579 202.758 149.324 201.53 151.048 200.28C152.815 198.987 154.754 197.5 156.866 195.82C159.02 194.139 160.83 192.717 162.296 191.553C166.347 188.321 168.997 186.166 170.247 185.089L183.951 173.388L187.765 169.639C188.196 169.165 188.605 168.928 188.993 168.928C189.381 168.928 189.661 168.993 189.833 169.122L191.32 170.156ZM144.713 217.863C145.058 217.518 145.23 217.303 145.23 217.216C145.23 217.173 145.187 217.152 145.101 217.152L144.002 217.54C139.821 219.781 136.029 222.754 132.625 226.46C129.22 230.166 127.518 232.644 127.518 233.894C127.518 234.024 127.582 234.088 127.712 234.088L128.1 233.959C130.297 232.666 132.775 230.684 135.533 228.012C138.335 225.34 140.576 222.97 142.256 220.901L144.713 217.863Z" fill="#006FFF"/>
<path d="M207.765 190.833C207.679 189.54 207.378 188.312 206.86 187.148C206.386 185.985 205.718 184.994 204.856 184.175C204.038 183.313 203.046 182.645 201.883 182.171C200.762 181.654 199.513 181.395 198.134 181.395C196.711 181.395 195.419 181.654 194.255 182.171C193.135 182.645 192.165 183.313 191.346 184.175C190.527 185.037 189.881 186.05 189.407 187.213C188.933 188.334 188.653 189.54 188.566 190.833H207.765ZM213.066 200.142C212.334 203.891 210.717 206.714 208.218 208.61C205.718 210.506 202.572 211.454 198.78 211.454C196.108 211.454 193.781 211.023 191.799 210.161C189.859 209.299 188.222 208.093 186.886 206.541C185.55 204.99 184.537 203.137 183.848 200.982C183.201 198.827 182.835 196.479 182.749 193.936C182.749 191.393 183.136 189.066 183.912 186.955C184.688 184.843 185.765 183.011 187.144 181.46C188.566 179.908 190.226 178.702 192.122 177.84C194.061 176.978 196.173 176.547 198.457 176.547C201.43 176.547 203.887 177.172 205.826 178.422C207.809 179.628 209.381 181.18 210.545 183.076C211.752 184.972 212.571 187.041 213.002 189.282C213.476 191.523 213.669 193.656 213.583 195.681H188.566C188.523 197.147 188.696 198.547 189.084 199.883C189.471 201.176 190.096 202.34 190.958 203.374C191.82 204.365 192.919 205.162 194.255 205.766C195.591 206.369 197.164 206.671 198.974 206.671C201.301 206.671 203.197 206.132 204.663 205.055C206.171 203.977 207.162 202.34 207.636 200.142H213.066Z" fill="#006FFF"/>
<path d="M245.007 210.614C244.059 211.174 242.744 211.454 241.064 211.454C239.641 211.454 238.499 211.066 237.638 210.291C236.819 209.472 236.409 208.157 236.409 206.347C234.901 208.157 233.134 209.472 231.109 210.291C229.126 211.066 226.971 211.454 224.644 211.454C223.136 211.454 221.692 211.282 220.313 210.937C218.977 210.592 217.814 210.054 216.823 209.321C215.831 208.588 215.034 207.64 214.431 206.477C213.87 205.27 213.59 203.826 213.59 202.146C213.59 200.249 213.914 198.698 214.56 197.491C215.206 196.285 216.047 195.315 217.081 194.582C218.158 193.807 219.365 193.225 220.701 192.837C222.08 192.449 223.481 192.126 224.903 191.867C226.411 191.566 227.833 191.35 229.169 191.221C230.548 191.049 231.755 190.833 232.789 190.575C233.824 190.273 234.642 189.863 235.246 189.346C235.849 188.786 236.151 187.989 236.151 186.955C236.151 185.748 235.914 184.778 235.44 184.046C235.009 183.313 234.427 182.753 233.694 182.365C233.005 181.977 232.208 181.718 231.303 181.589C230.441 181.46 229.579 181.395 228.717 181.395C226.39 181.395 224.45 181.848 222.899 182.753C221.348 183.615 220.507 185.274 220.378 187.73H214.883C214.969 185.662 215.4 183.916 216.176 182.494C216.952 181.072 217.986 179.93 219.279 179.068C220.572 178.163 222.037 177.517 223.675 177.129C225.355 176.741 227.144 176.547 229.04 176.547C230.548 176.547 232.035 176.655 233.5 176.87C235.009 177.086 236.366 177.538 237.573 178.228C238.78 178.874 239.749 179.801 240.482 181.007C241.214 182.214 241.581 183.787 241.581 185.726V202.921C241.581 204.214 241.645 205.162 241.775 205.766C241.947 206.369 242.464 206.671 243.326 206.671C243.8 206.671 244.36 206.563 245.007 206.347V210.614ZM236.086 193.483C235.397 194.001 234.492 194.388 233.371 194.647C232.251 194.863 231.065 195.056 229.816 195.229C228.609 195.358 227.381 195.53 226.131 195.746C224.881 195.918 223.761 196.22 222.77 196.651C221.778 197.082 220.96 197.707 220.313 198.526C219.71 199.301 219.408 200.379 219.408 201.758C219.408 202.663 219.581 203.438 219.925 204.085C220.313 204.688 220.787 205.184 221.348 205.572C221.951 205.96 222.64 206.24 223.416 206.412C224.192 206.584 225.011 206.671 225.873 206.671C227.683 206.671 229.234 206.434 230.527 205.96C231.82 205.442 232.875 204.818 233.694 204.085C234.513 203.309 235.116 202.49 235.504 201.628C235.892 200.723 236.086 199.883 236.086 199.107V193.483Z" fill="#006FFF"/>
<path d="M246.048 177.323H251.22V184.369H251.349C252.685 181.654 254.322 179.65 256.262 178.357C258.201 177.064 260.657 176.461 263.631 176.547V182.365C261.433 182.365 259.559 182.667 258.007 183.27C256.456 183.873 255.206 184.757 254.258 185.92C253.31 187.084 252.62 188.506 252.189 190.187C251.758 191.824 251.543 193.72 251.543 195.875V210.743H246.048V177.323Z" fill="#006FFF"/>
<path d="M267.252 200.206C267.295 201.413 267.575 202.447 268.092 203.309C268.609 204.128 269.277 204.796 270.096 205.313C270.958 205.787 271.906 206.132 272.94 206.347C274.018 206.563 275.116 206.671 276.237 206.671C277.099 206.671 278.004 206.606 278.952 206.477C279.9 206.347 280.762 206.11 281.538 205.766C282.356 205.421 283.024 204.925 283.542 204.279C284.059 203.589 284.317 202.727 284.317 201.693C284.317 200.271 283.779 199.194 282.701 198.461C281.624 197.728 280.266 197.147 278.629 196.716C277.034 196.242 275.289 195.832 273.393 195.487C271.496 195.1 269.73 194.582 268.092 193.936C266.497 193.246 265.161 192.298 264.084 191.092C263.007 189.885 262.468 188.204 262.468 186.05C262.468 184.369 262.834 182.925 263.567 181.718C264.343 180.512 265.312 179.542 266.476 178.81C267.682 178.034 269.018 177.474 270.484 177.129C271.992 176.741 273.479 176.547 274.944 176.547C276.84 176.547 278.586 176.719 280.18 177.064C281.775 177.366 283.175 177.926 284.382 178.745C285.632 179.521 286.623 180.598 287.355 181.977C288.088 183.313 288.519 184.994 288.648 187.019H283.154C283.068 185.942 282.787 185.058 282.313 184.369C281.839 183.636 281.236 183.054 280.503 182.623C279.771 182.193 278.952 181.891 278.047 181.718C277.185 181.503 276.302 181.395 275.397 181.395C274.578 181.395 273.737 181.46 272.875 181.589C272.057 181.718 271.302 181.955 270.613 182.3C269.923 182.602 269.363 183.033 268.932 183.593C268.501 184.11 268.286 184.8 268.286 185.662C268.286 186.61 268.609 187.407 269.255 188.053C269.945 188.657 270.807 189.174 271.841 189.605C272.875 189.993 274.039 190.338 275.332 190.639C276.625 190.898 277.918 191.178 279.21 191.48C280.59 191.781 281.925 192.148 283.218 192.578C284.554 193.009 285.718 193.591 286.709 194.324C287.743 195.013 288.562 195.897 289.165 196.974C289.812 198.052 290.135 199.388 290.135 200.982C290.135 203.008 289.704 204.688 288.842 206.024C288.023 207.36 286.925 208.438 285.545 209.256C284.21 210.075 282.68 210.635 280.956 210.937C279.275 211.282 277.594 211.454 275.914 211.454C274.061 211.454 272.294 211.26 270.613 210.872C268.932 210.485 267.445 209.86 266.153 208.998C264.86 208.093 263.825 206.929 263.05 205.507C262.274 204.042 261.843 202.275 261.757 200.206H267.252Z" fill="#006FFF"/>
<path d="M161.494 228.165C161.494 228.735 161.566 229.243 161.712 229.692C161.869 230.128 162.081 230.497 162.348 230.8C162.614 231.091 162.923 231.315 163.275 231.472C163.638 231.63 164.02 231.709 164.419 231.709C164.819 231.709 165.195 231.63 165.546 231.472C165.909 231.315 166.224 231.091 166.491 230.8C166.757 230.497 166.963 230.128 167.109 229.692C167.266 229.243 167.345 228.735 167.345 228.165C167.345 227.596 167.266 227.093 167.109 226.657C166.963 226.209 166.757 225.833 166.491 225.53C166.224 225.227 165.909 224.997 165.546 224.84C165.195 224.682 164.819 224.604 164.419 224.604C164.02 224.604 163.638 224.682 163.275 224.84C162.923 224.997 162.614 225.227 162.348 225.53C162.081 225.833 161.869 226.209 161.712 226.657C161.566 227.093 161.494 227.596 161.494 228.165ZM159.858 228.165C159.858 227.475 159.955 226.833 160.149 226.239C160.343 225.633 160.634 225.112 161.021 224.676C161.409 224.228 161.887 223.877 162.457 223.622C163.026 223.368 163.68 223.241 164.419 223.241C165.17 223.241 165.825 223.368 166.382 223.622C166.951 223.877 167.43 224.228 167.817 224.676C168.205 225.112 168.496 225.633 168.69 226.239C168.884 226.833 168.98 227.475 168.98 228.165C168.98 228.856 168.884 229.498 168.69 230.091C168.496 230.685 168.205 231.206 167.817 231.654C167.43 232.09 166.951 232.436 166.382 232.69C165.825 232.932 165.17 233.053 164.419 233.053C163.68 233.053 163.026 232.932 162.457 232.69C161.887 232.436 161.409 232.09 161.021 231.654C160.634 231.206 160.343 230.685 160.149 230.091C159.955 229.498 159.858 228.856 159.858 228.165ZM171.074 224.822H169.493V223.459H171.074V222.06C171.074 221.296 171.292 220.721 171.728 220.333C172.177 219.933 172.825 219.734 173.673 219.734C173.818 219.734 173.982 219.746 174.163 219.77C174.357 219.794 174.527 219.831 174.672 219.879V221.224C174.539 221.175 174.393 221.145 174.236 221.133C174.079 221.109 173.933 221.096 173.8 221.096C173.424 221.096 173.134 221.169 172.928 221.315C172.722 221.46 172.619 221.739 172.619 222.15V223.459H174.436V224.822H172.619V232.854H171.074V224.822ZM180.4 219.879H189.359V221.333H182.126V225.458H188.868V226.911H182.126V231.4H189.413V232.854H180.4V219.879ZM190.891 223.459H192.345V224.949H192.381C193.023 223.81 194.041 223.241 195.434 223.241C196.052 223.241 196.567 223.326 196.979 223.495C197.391 223.665 197.724 223.901 197.978 224.204C198.232 224.507 198.408 224.87 198.505 225.294C198.614 225.706 198.669 226.166 198.669 226.675V232.854H197.124V226.493C197.124 225.912 196.954 225.452 196.615 225.112C196.276 224.773 195.81 224.604 195.216 224.604C194.744 224.604 194.332 224.676 193.98 224.822C193.641 224.967 193.356 225.173 193.126 225.439C192.896 225.706 192.72 226.021 192.599 226.384C192.49 226.736 192.436 227.123 192.436 227.547V232.854H190.891V223.459ZM204.859 232.854H203.205L199.716 223.459H201.443L204.078 231.291H204.114L206.676 223.459H208.293L204.859 232.854ZM210.983 221.769H209.438V219.879H210.983V221.769ZM209.438 223.459H210.983V232.854H209.438V223.459ZM212.958 223.459H214.411V225.439H214.448C214.823 224.676 215.284 224.113 215.829 223.75C216.374 223.386 217.065 223.216 217.9 223.241V224.876C217.283 224.876 216.756 224.961 216.32 225.131C215.883 225.3 215.532 225.549 215.266 225.876C214.999 226.203 214.805 226.602 214.684 227.075C214.563 227.535 214.502 228.068 214.502 228.674V232.854H212.958V223.459ZM219.507 228.165C219.507 228.735 219.58 229.243 219.725 229.692C219.883 230.128 220.095 230.497 220.361 230.8C220.628 231.091 220.937 231.315 221.288 231.472C221.652 231.63 222.033 231.709 222.433 231.709C222.833 231.709 223.208 231.63 223.56 231.472C223.923 231.315 224.238 231.091 224.505 230.8C224.771 230.497 224.977 230.128 225.122 229.692C225.28 229.243 225.359 228.735 225.359 228.165C225.359 227.596 225.28 227.093 225.122 226.657C224.977 226.209 224.771 225.833 224.505 225.53C224.238 225.227 223.923 224.997 223.56 224.84C223.208 224.682 222.833 224.604 222.433 224.604C222.033 224.604 221.652 224.682 221.288 224.84C220.937 224.997 220.628 225.227 220.361 225.53C220.095 225.833 219.883 226.209 219.725 226.657C219.58 227.093 219.507 227.596 219.507 228.165ZM217.872 228.165C217.872 227.475 217.969 226.833 218.163 226.239C218.356 225.633 218.647 225.112 219.035 224.676C219.423 224.228 219.901 223.877 220.47 223.622C221.04 223.368 221.694 223.241 222.433 223.241C223.184 223.241 223.838 223.368 224.396 223.622C224.965 223.877 225.443 224.228 225.831 224.676C226.219 225.112 226.509 225.633 226.703 226.239C226.897 226.833 226.994 227.475 226.994 228.165C226.994 228.856 226.897 229.498 226.703 230.091C226.509 230.685 226.219 231.206 225.831 231.654C225.443 232.09 224.965 232.436 224.396 232.69C223.838 232.932 223.184 233.053 222.433 233.053C221.694 233.053 221.04 232.932 220.47 232.69C219.901 232.436 219.423 232.09 219.035 231.654C218.647 231.206 218.356 230.685 218.163 230.091C217.969 229.498 217.872 228.856 217.872 228.165ZM228.452 223.459H229.905V224.949H229.942C230.584 223.81 231.602 223.241 232.995 223.241C233.613 223.241 234.127 223.326 234.539 223.495C234.951 223.665 235.284 223.901 235.539 224.204C235.793 224.507 235.969 224.87 236.066 225.294C236.175 225.706 236.229 226.166 236.229 226.675V232.854H234.685V226.493C234.685 225.912 234.515 225.452 234.176 225.112C233.837 224.773 233.37 224.604 232.777 224.604C232.304 224.604 231.892 224.676 231.541 224.822C231.202 224.967 230.917 225.173 230.687 225.439C230.457 225.706 230.281 226.021 230.16 226.384C230.051 226.736 229.996 227.123 229.996 227.547V232.854H228.452V223.459ZM238.186 223.459H239.639V224.84H239.676C240.378 223.774 241.39 223.241 242.71 223.241C243.292 223.241 243.819 223.362 244.291 223.604C244.764 223.846 245.097 224.258 245.291 224.84C245.606 224.331 246.018 223.937 246.526 223.659C247.047 223.38 247.617 223.241 248.235 223.241C248.707 223.241 249.131 223.295 249.507 223.404C249.894 223.501 250.221 223.659 250.488 223.877C250.766 224.095 250.978 224.379 251.124 224.731C251.281 225.07 251.36 225.482 251.36 225.966V232.854H249.815V226.693C249.815 226.403 249.791 226.13 249.743 225.876C249.694 225.621 249.603 225.403 249.47 225.221C249.337 225.028 249.149 224.876 248.907 224.767C248.677 224.658 248.374 224.604 247.998 224.604C247.235 224.604 246.635 224.822 246.199 225.258C245.763 225.694 245.545 226.275 245.545 227.002V232.854H244.001V226.693C244.001 226.39 243.97 226.112 243.91 225.857C243.861 225.603 243.77 225.385 243.637 225.203C243.504 225.009 243.322 224.864 243.092 224.767C242.874 224.658 242.589 224.604 242.238 224.604C241.79 224.604 241.402 224.694 241.075 224.876C240.76 225.058 240.5 225.276 240.294 225.53C240.1 225.785 239.954 226.051 239.857 226.33C239.773 226.596 239.73 226.821 239.73 227.002V232.854H238.186V223.459ZM259.838 227.257C259.814 226.893 259.729 226.548 259.583 226.221C259.45 225.894 259.262 225.615 259.02 225.385C258.79 225.143 258.511 224.955 258.184 224.822C257.869 224.676 257.518 224.604 257.13 224.604C256.731 224.604 256.367 224.676 256.04 224.822C255.725 224.955 255.452 225.143 255.222 225.385C254.992 225.627 254.81 225.912 254.677 226.239C254.544 226.554 254.465 226.893 254.441 227.257H259.838ZM261.328 229.873C261.122 230.927 260.668 231.721 259.965 232.254C259.262 232.787 258.378 233.053 257.312 233.053C256.561 233.053 255.907 232.932 255.349 232.69C254.804 232.448 254.344 232.108 253.968 231.672C253.593 231.236 253.308 230.715 253.114 230.11C252.933 229.504 252.83 228.844 252.805 228.129C252.805 227.414 252.914 226.76 253.133 226.166C253.351 225.573 253.653 225.058 254.041 224.622C254.441 224.186 254.907 223.846 255.44 223.604C255.985 223.362 256.579 223.241 257.221 223.241C258.057 223.241 258.748 223.416 259.293 223.768C259.85 224.107 260.292 224.543 260.619 225.076C260.958 225.609 261.189 226.191 261.31 226.821C261.443 227.45 261.498 228.05 261.473 228.62H254.441C254.429 229.031 254.477 229.425 254.586 229.801C254.695 230.164 254.871 230.491 255.113 230.782C255.356 231.061 255.664 231.285 256.04 231.454C256.416 231.624 256.858 231.709 257.367 231.709C258.021 231.709 258.554 231.557 258.966 231.254C259.39 230.952 259.668 230.491 259.802 229.873H261.328ZM262.711 223.459H264.165V224.949H264.201C264.843 223.81 265.861 223.241 267.254 223.241C267.872 223.241 268.387 223.326 268.798 223.495C269.21 223.665 269.543 223.901 269.798 224.204C270.052 224.507 270.228 224.87 270.325 225.294C270.434 225.706 270.488 226.166 270.488 226.675V232.854H268.944V226.493C268.944 225.912 268.774 225.452 268.435 225.112C268.096 224.773 267.629 224.604 267.036 224.604C266.563 224.604 266.151 224.676 265.8 224.822C265.461 224.967 265.176 225.173 264.946 225.439C264.716 225.706 264.54 226.021 264.419 226.384C264.31 226.736 264.256 227.123 264.256 227.547V232.854H262.711V223.459ZM274.589 223.459H276.461V224.822H274.589V230.655C274.589 230.836 274.601 230.982 274.625 231.091C274.662 231.2 274.722 231.285 274.807 231.345C274.892 231.406 275.007 231.448 275.152 231.472C275.31 231.485 275.51 231.491 275.752 231.491H276.461V232.854H275.28C274.88 232.854 274.535 232.829 274.244 232.781C273.965 232.72 273.735 232.617 273.553 232.472C273.384 232.327 273.257 232.121 273.172 231.854C273.087 231.588 273.045 231.236 273.045 230.8V224.822H271.445V223.459H273.045V220.642H274.589V223.459ZM286.136 232.817C285.869 232.975 285.5 233.053 285.027 233.053C284.628 233.053 284.307 232.944 284.064 232.726C283.834 232.496 283.719 232.127 283.719 231.618C283.295 232.127 282.798 232.496 282.229 232.726C281.672 232.944 281.066 233.053 280.412 233.053C279.988 233.053 279.582 233.005 279.194 232.908C278.819 232.811 278.492 232.66 278.213 232.454C277.934 232.248 277.71 231.981 277.541 231.654C277.383 231.315 277.304 230.909 277.304 230.437C277.304 229.904 277.395 229.468 277.577 229.128C277.759 228.789 277.995 228.517 278.286 228.311C278.589 228.093 278.928 227.929 279.303 227.82C279.691 227.711 280.085 227.62 280.485 227.547C280.909 227.463 281.308 227.402 281.684 227.366C282.072 227.317 282.411 227.257 282.701 227.184C282.992 227.099 283.222 226.984 283.392 226.839C283.562 226.681 283.646 226.457 283.646 226.166C283.646 225.827 283.58 225.555 283.446 225.349C283.325 225.143 283.162 224.985 282.956 224.876C282.762 224.767 282.538 224.694 282.284 224.658C282.041 224.622 281.799 224.604 281.557 224.604C280.902 224.604 280.357 224.731 279.921 224.985C279.485 225.227 279.249 225.694 279.212 226.384H277.668C277.692 225.803 277.813 225.312 278.031 224.913C278.249 224.513 278.54 224.192 278.904 223.949C279.267 223.695 279.679 223.513 280.139 223.404C280.612 223.295 281.114 223.241 281.647 223.241C282.072 223.241 282.489 223.271 282.901 223.332C283.325 223.392 283.707 223.519 284.046 223.713C284.385 223.895 284.658 224.155 284.864 224.495C285.07 224.834 285.173 225.276 285.173 225.821V230.655C285.173 231.018 285.191 231.285 285.227 231.454C285.276 231.624 285.421 231.709 285.663 231.709C285.797 231.709 285.954 231.678 286.136 231.618V232.817ZM283.628 228.002C283.434 228.147 283.18 228.256 282.865 228.329C282.55 228.389 282.217 228.444 281.866 228.492C281.526 228.529 281.181 228.577 280.83 228.638C280.478 228.686 280.163 228.771 279.885 228.892C279.606 229.013 279.376 229.189 279.194 229.419C279.025 229.637 278.94 229.94 278.94 230.328C278.94 230.582 278.988 230.8 279.085 230.982C279.194 231.151 279.328 231.291 279.485 231.4C279.655 231.509 279.849 231.588 280.067 231.636C280.285 231.684 280.515 231.709 280.757 231.709C281.266 231.709 281.702 231.642 282.065 231.509C282.429 231.363 282.726 231.188 282.956 230.982C283.186 230.764 283.356 230.534 283.465 230.291C283.574 230.037 283.628 229.801 283.628 229.583V228.002ZM287.301 219.879H288.845V232.854H287.301V219.879Z" fill="black" fill-opacity="0.8"/>
<path d="M213.387 242.094H216.767C217.748 242.106 218.463 241.906 218.911 241.494C219.371 241.082 219.602 240.489 219.602 239.713C219.602 238.938 219.371 238.35 218.911 237.951C218.463 237.539 217.748 237.333 216.767 237.333H213.387V242.094ZM211.661 235.879H217.348C218.657 235.879 219.644 236.218 220.31 236.897C220.989 237.563 221.328 238.502 221.328 239.713C221.328 240.925 220.989 241.87 220.31 242.548C219.644 243.226 218.657 243.56 217.348 243.547H213.387V248.854H211.661V235.879ZM222.771 239.459H224.225V241.439H224.262C224.637 240.676 225.097 240.113 225.643 239.75C226.188 239.386 226.878 239.216 227.714 239.241V240.876C227.096 240.876 226.569 240.961 226.133 241.131C225.697 241.3 225.346 241.549 225.079 241.876C224.813 242.203 224.619 242.602 224.498 243.075C224.377 243.535 224.316 244.068 224.316 244.674V248.854H222.771V239.459ZM229.321 244.165C229.321 244.735 229.394 245.243 229.539 245.692C229.697 246.128 229.909 246.497 230.175 246.8C230.442 247.091 230.751 247.315 231.102 247.472C231.465 247.63 231.847 247.709 232.247 247.709C232.646 247.709 233.022 247.63 233.373 247.472C233.737 247.315 234.052 247.091 234.318 246.8C234.585 246.497 234.791 246.128 234.936 245.692C235.094 245.243 235.172 244.735 235.172 244.165C235.172 243.596 235.094 243.093 234.936 242.657C234.791 242.209 234.585 241.833 234.318 241.53C234.052 241.227 233.737 240.997 233.373 240.84C233.022 240.682 232.646 240.604 232.247 240.604C231.847 240.604 231.465 240.682 231.102 240.84C230.751 240.997 230.442 241.227 230.175 241.53C229.909 241.833 229.697 242.209 229.539 242.657C229.394 243.093 229.321 243.596 229.321 244.165ZM227.686 244.165C227.686 243.475 227.783 242.833 227.976 242.239C228.17 241.633 228.461 241.112 228.849 240.676C229.236 240.228 229.715 239.877 230.284 239.622C230.854 239.368 231.508 239.241 232.247 239.241C232.998 239.241 233.652 239.368 234.209 239.622C234.779 239.877 235.257 240.228 235.645 240.676C236.032 241.112 236.323 241.633 236.517 242.239C236.711 242.833 236.808 243.475 236.808 244.165C236.808 244.856 236.711 245.498 236.517 246.091C236.323 246.685 236.032 247.206 235.645 247.654C235.257 248.09 234.779 248.436 234.209 248.69C233.652 248.932 232.998 249.053 232.247 249.053C231.508 249.053 230.854 248.932 230.284 248.69C229.715 248.436 229.236 248.09 228.849 247.654C228.461 247.206 228.17 246.685 227.976 246.091C227.783 245.498 227.686 244.856 227.686 244.165ZM240.41 239.459H242.281V240.822H240.41V246.655C240.41 246.836 240.422 246.982 240.446 247.091C240.482 247.2 240.543 247.285 240.628 247.345C240.713 247.406 240.828 247.448 240.973 247.472C241.131 247.485 241.33 247.491 241.573 247.491H242.281V248.854H241.1C240.7 248.854 240.355 248.829 240.064 248.781C239.786 248.72 239.556 248.617 239.374 248.472C239.204 248.327 239.077 248.121 238.992 247.854C238.908 247.588 238.865 247.236 238.865 246.8V240.822H237.266V239.459H238.865V236.642H240.41V239.459ZM250.158 243.257C250.133 242.893 250.049 242.548 249.903 242.221C249.77 241.894 249.582 241.615 249.34 241.385C249.11 241.143 248.831 240.955 248.504 240.822C248.189 240.676 247.838 240.604 247.45 240.604C247.05 240.604 246.687 240.676 246.36 240.822C246.045 240.955 245.772 241.143 245.542 241.385C245.312 241.627 245.13 241.912 244.997 242.239C244.864 242.554 244.785 242.893 244.761 243.257H250.158ZM251.648 245.873C251.442 246.927 250.987 247.721 250.285 248.254C249.582 248.787 248.698 249.053 247.632 249.053C246.881 249.053 246.226 248.932 245.669 248.69C245.124 248.448 244.664 248.108 244.288 247.672C243.913 247.236 243.628 246.715 243.434 246.11C243.252 245.504 243.149 244.844 243.125 244.129C243.125 243.414 243.234 242.76 243.452 242.166C243.67 241.573 243.973 241.058 244.361 240.622C244.761 240.186 245.227 239.846 245.76 239.604C246.305 239.362 246.899 239.241 247.541 239.241C248.377 239.241 249.067 239.416 249.612 239.768C250.17 240.107 250.612 240.543 250.939 241.076C251.278 241.609 251.508 242.191 251.629 242.821C251.763 243.45 251.817 244.05 251.793 244.62H244.761C244.748 245.031 244.797 245.425 244.906 245.801C245.015 246.164 245.191 246.491 245.433 246.782C245.675 247.061 245.984 247.285 246.36 247.454C246.735 247.624 247.177 247.709 247.686 247.709C248.34 247.709 248.873 247.557 249.285 247.254C249.709 246.952 249.988 246.491 250.121 245.873H251.648ZM259.409 242.475C259.288 241.882 259.033 241.421 258.646 241.094C258.258 240.767 257.737 240.604 257.083 240.604C256.526 240.604 256.059 240.707 255.684 240.913C255.308 241.118 255.005 241.391 254.775 241.73C254.557 242.069 254.4 242.463 254.303 242.911C254.206 243.348 254.157 243.802 254.157 244.274C254.157 244.71 254.206 245.134 254.303 245.546C254.412 245.958 254.575 246.328 254.793 246.655C255.011 246.97 255.296 247.224 255.647 247.418C255.999 247.612 256.417 247.709 256.901 247.709C257.664 247.709 258.258 247.509 258.682 247.109C259.118 246.709 259.385 246.146 259.482 245.419H261.063C260.893 246.582 260.457 247.479 259.754 248.108C259.064 248.738 258.119 249.053 256.919 249.053C256.205 249.053 255.569 248.938 255.011 248.708C254.466 248.478 254.006 248.151 253.63 247.727C253.267 247.303 252.988 246.8 252.794 246.219C252.613 245.625 252.522 244.977 252.522 244.274C252.522 243.572 252.613 242.917 252.794 242.312C252.976 241.694 253.249 241.161 253.612 240.713C253.988 240.252 254.454 239.895 255.011 239.641C255.569 239.374 256.217 239.241 256.956 239.241C257.489 239.241 257.985 239.307 258.446 239.441C258.918 239.562 259.33 239.756 259.681 240.022C260.045 240.289 260.342 240.628 260.572 241.04C260.802 241.439 260.947 241.918 261.008 242.475H259.409ZM264.572 239.459H266.443V240.822H264.572V246.655C264.572 246.836 264.584 246.982 264.608 247.091C264.644 247.2 264.705 247.285 264.79 247.345C264.874 247.406 264.99 247.448 265.135 247.472C265.292 247.485 265.492 247.491 265.735 247.491H266.443V248.854H265.262C264.862 248.854 264.517 248.829 264.226 248.781C263.948 248.72 263.718 248.617 263.536 248.472C263.366 248.327 263.239 248.121 263.154 247.854C263.069 247.588 263.027 247.236 263.027 246.8V240.822H261.428V239.459H263.027V236.642H264.572V239.459ZM269.431 237.769H267.887V235.879H269.431V237.769ZM267.887 239.459H269.431V248.854H267.887V239.459ZM272.587 244.165C272.587 244.735 272.66 245.243 272.805 245.692C272.963 246.128 273.175 246.497 273.441 246.8C273.708 247.091 274.017 247.315 274.368 247.472C274.732 247.63 275.113 247.709 275.513 247.709C275.913 247.709 276.288 247.63 276.64 247.472C277.003 247.315 277.318 247.091 277.584 246.8C277.851 246.497 278.057 246.128 278.202 245.692C278.36 245.243 278.439 244.735 278.439 244.165C278.439 243.596 278.36 243.093 278.202 242.657C278.057 242.209 277.851 241.833 277.584 241.53C277.318 241.227 277.003 240.997 276.64 240.84C276.288 240.682 275.913 240.604 275.513 240.604C275.113 240.604 274.732 240.682 274.368 240.84C274.017 240.997 273.708 241.227 273.441 241.53C273.175 241.833 272.963 242.209 272.805 242.657C272.66 243.093 272.587 243.596 272.587 244.165ZM270.952 244.165C270.952 243.475 271.049 242.833 271.243 242.239C271.436 241.633 271.727 241.112 272.115 240.676C272.502 240.228 272.981 239.877 273.55 239.622C274.12 239.368 274.774 239.241 275.513 239.241C276.264 239.241 276.918 239.368 277.475 239.622C278.045 239.877 278.523 240.228 278.911 240.676C279.299 241.112 279.589 241.633 279.783 242.239C279.977 242.833 280.074 243.475 280.074 244.165C280.074 244.856 279.977 245.498 279.783 246.091C279.589 246.685 279.299 247.206 278.911 247.654C278.523 248.09 278.045 248.436 277.475 248.69C276.918 248.932 276.264 249.053 275.513 249.053C274.774 249.053 274.12 248.932 273.55 248.69C272.981 248.436 272.502 248.09 272.115 247.654C271.727 247.206 271.436 246.685 271.243 246.091C271.049 245.498 270.952 244.856 270.952 244.165ZM281.532 239.459H282.985V240.949H283.022C283.664 239.81 284.681 239.241 286.075 239.241C286.692 239.241 287.207 239.326 287.619 239.495C288.031 239.665 288.364 239.901 288.619 240.204C288.873 240.507 289.049 240.87 289.146 241.294C289.255 241.706 289.309 242.166 289.309 242.675V248.854H287.765V242.493C287.765 241.912 287.595 241.452 287.256 241.112C286.917 240.773 286.45 240.604 285.857 240.604C285.384 240.604 284.972 240.676 284.621 240.822C284.282 240.967 283.997 241.173 283.767 241.439C283.537 241.706 283.361 242.021 283.24 242.384C283.131 242.736 283.076 243.123 283.076 243.547V248.854H281.532V239.459Z" fill="black" fill-opacity="0.8"/>
<defs>
<linearGradient id="paint0_linear_8_112" x1="150.191" y1="155.156" x2="284.26" y2="67.6288" gradientUnits="userSpaceOnUse">
<stop stop-color="#92C022"/>
<stop offset="1" stop-color="#289034"/>
</linearGradient>
<linearGradient id="paint1_linear_8_112" x1="150.191" y1="155.156" x2="284.26" y2="67.6288" gradientUnits="userSpaceOnUse">
<stop stop-color="#92C022"/>
<stop offset="1" stop-color="#289034"/>
</linearGradient>
<linearGradient id="paint2_linear_8_112" x1="150.191" y1="155.156" x2="284.26" y2="67.6288" gradientUnits="userSpaceOnUse">
<stop stop-color="#92C022"/>
<stop offset="1" stop-color="#289034"/>
</linearGradient>
<linearGradient id="paint3_linear_8_112" x1="150.191" y1="155.156" x2="284.26" y2="67.6288" gradientUnits="userSpaceOnUse">
<stop stop-color="#92C022"/>
<stop offset="1" stop-color="#289034"/>
</linearGradient>
<linearGradient id="paint4_linear_8_112" x1="150.191" y1="155.156" x2="284.26" y2="67.6288" gradientUnits="userSpaceOnUse">
<stop stop-color="#92C022"/>
<stop offset="1" stop-color="#289034"/>
</linearGradient>
<linearGradient id="paint5_linear_8_112" x1="150.191" y1="155.156" x2="284.26" y2="67.6288" gradientUnits="userSpaceOnUse">
<stop stop-color="#92C022"/>
<stop offset="1" stop-color="#289034"/>
</linearGradient>
<linearGradient id="paint6_linear_8_112" x1="150.191" y1="155.156" x2="284.26" y2="67.6288" gradientUnits="userSpaceOnUse">
<stop stop-color="#92C022"/>
<stop offset="1" stop-color="#289034"/>
</linearGradient>
<linearGradient id="paint7_linear_8_112" x1="150.191" y1="155.156" x2="284.26" y2="67.6288" gradientUnits="userSpaceOnUse">
<stop stop-color="#92C022"/>
<stop offset="1" stop-color="#289034"/>
</linearGradient>
<linearGradient id="paint8_linear_8_112" x1="150.191" y1="155.156" x2="284.26" y2="67.6288" gradientUnits="userSpaceOnUse">
<stop stop-color="#92C022"/>
<stop offset="1" stop-color="#289034"/>
</linearGradient>
</defs>
</svg>
