<svg width="93" height="32" viewBox="0 0 93 32" fill="none" xmlns="http://www.w3.org/2000/svg">
<rect x="0.755859" y="0.755859" width="90.7243" height="30.2414" rx="11" fill="#001E32"/>
<rect x="0.377841" y="0.377841" width="91.4803" height="30.9975" rx="11.378" stroke="white" stroke-opacity="0.12" stroke-width="0.756036"/>
<path d="M19.4329 16.4542C19.4421 15.7587 19.6313 15.0768 19.983 14.4719C20.3346 13.867 20.8373 13.3587 21.4442 12.9945C21.0586 12.4569 20.55 12.0145 19.9587 11.7024C19.3674 11.3903 18.7097 11.2171 18.0378 11.1966C16.6046 11.0497 15.2152 12.0339 14.4849 12.0339C13.7404 12.0339 12.6159 11.2112 11.4051 11.2355C10.6218 11.2602 9.85854 11.4825 9.18952 11.8809C8.5205 12.2792 7.96857 12.84 7.58752 13.5085C5.93693 16.2986 7.16812 20.399 8.74928 22.6543C9.54037 23.7587 10.4649 24.9923 11.6747 24.9485C12.8585 24.9006 13.3007 24.2115 14.7296 24.2115C16.1454 24.2115 16.5602 24.9485 17.7945 24.9207C19.0648 24.9006 19.8651 23.8114 20.6285 22.6966C21.1969 21.9098 21.6343 21.0401 21.9244 20.1198C21.1864 19.8151 20.5566 19.305 20.1136 18.6531C19.6705 18.0013 19.4338 17.2365 19.4329 16.4542Z" fill="white"/>
<path d="M17.1019 9.71326C17.7945 8.9015 18.1358 7.85811 18.0531 6.80469C16.995 6.91319 16.0175 7.40694 15.3155 8.18756C14.9723 8.56891 14.7095 9.01256 14.542 9.49316C14.3745 9.97375 14.3056 10.4819 14.3394 10.9884C14.8687 10.9938 15.3923 10.8818 15.8708 10.6609C16.3493 10.44 16.7703 10.116 17.1019 9.71326Z" fill="white"/>
<path d="M27.7559 7.97852H29.7699C30.1419 7.97852 30.464 8.04202 30.7362 8.16904C31.0083 8.29605 31.2306 8.47069 31.403 8.69297C31.5754 8.91071 31.7024 9.167 31.784 9.46186C31.8702 9.75671 31.9133 10.072 31.9133 10.4077C31.9133 10.7433 31.8702 11.0586 31.784 11.3535C31.7024 11.6483 31.5754 11.9069 31.403 12.1292C31.2306 12.3469 31.0083 12.5193 30.7362 12.6463C30.464 12.7733 30.1419 12.8368 29.7699 12.8368H27.7559V7.97852ZM28.6064 12.1428H29.4433C29.7745 12.1428 30.0444 12.0997 30.253 12.0135C30.4662 11.9228 30.6318 11.8003 30.7498 11.646C30.8722 11.4873 30.9539 11.3036 30.9947 11.0949C31.0401 10.8817 31.0628 10.6526 31.0628 10.4077C31.0628 10.1627 31.0401 9.93589 30.9947 9.72723C30.9539 9.51402 30.8722 9.33031 30.7498 9.17608C30.6318 9.01731 30.4662 8.89483 30.253 8.80864C30.0444 8.71792 29.7745 8.67256 29.4433 8.67256H28.6064V12.1428Z" fill="white"/>
<path d="M34.1702 12.9321C33.8889 12.9321 33.6372 12.8867 33.4149 12.796C33.1971 12.7007 33.0112 12.5714 32.8569 12.4081C32.7072 12.2448 32.5916 12.0498 32.5099 11.823C32.4328 11.5961 32.3942 11.3467 32.3942 11.0745C32.3942 10.8068 32.4328 10.5596 32.5099 10.3328C32.5916 10.106 32.7072 9.91094 32.8569 9.74764C33.0112 9.58434 33.1971 9.45732 33.4149 9.3666C33.6372 9.27134 33.8889 9.22371 34.1702 9.22371C34.4514 9.22371 34.7009 9.27134 34.9186 9.3666C35.1409 9.45732 35.3269 9.58434 35.4766 9.74764C35.6308 9.91094 35.7465 10.106 35.8236 10.3328C35.9053 10.5596 35.9461 10.8068 35.9461 11.0745C35.9461 11.3467 35.9053 11.5961 35.8236 11.823C35.7465 12.0498 35.6308 12.2448 35.4766 12.4081C35.3269 12.5714 35.1409 12.7007 34.9186 12.796C34.7009 12.8867 34.4514 12.9321 34.1702 12.9321ZM34.1702 12.3197C34.3425 12.3197 34.4922 12.2834 34.6192 12.2108C34.7463 12.1382 34.8506 12.043 34.9322 11.925C35.0139 11.8071 35.0729 11.6755 35.1092 11.5304C35.15 11.3807 35.1704 11.2287 35.1704 11.0745C35.1704 10.9248 35.15 10.7751 35.1092 10.6254C35.0729 10.4757 35.0139 10.3442 34.9322 10.2307C34.8506 10.1128 34.7463 10.0175 34.6192 9.94497C34.4922 9.87239 34.3425 9.8361 34.1702 9.8361C33.9978 9.8361 33.8481 9.87239 33.7211 9.94497C33.5941 10.0175 33.4897 10.1128 33.4081 10.2307C33.3264 10.3442 33.2652 10.4757 33.2244 10.6254C33.1881 10.7751 33.1699 10.9248 33.1699 11.0745C33.1699 11.2287 33.1881 11.3807 33.2244 11.5304C33.2652 11.6755 33.3264 11.8071 33.4081 11.925C33.4897 12.043 33.5941 12.1382 33.7211 12.2108C33.8481 12.2834 33.9978 12.3197 34.1702 12.3197Z" fill="white"/>
<path d="M36.2711 9.31897H37.0945L37.7817 11.9454H37.7953L38.4553 9.31897H39.2378L39.8706 11.9454H39.8842L40.5987 9.31897H41.388L40.2857 12.8368H39.4896L38.8364 10.2239H38.8228L38.1764 12.8368H37.3598L36.2711 9.31897Z" fill="white"/>
<path d="M41.8869 9.31897H42.6218V9.8361L42.6354 9.8497C42.7533 9.65465 42.9075 9.50268 43.0981 9.39381C43.2886 9.28041 43.4995 9.22371 43.7309 9.22371C44.1164 9.22371 44.4204 9.3235 44.6426 9.5231C44.8649 9.72269 44.9761 10.0221 44.9761 10.4213V12.8368H44.2004V10.6254C44.1913 10.3487 44.1323 10.1491 44.0235 10.0266C43.9146 9.8996 43.7445 9.8361 43.5131 9.8361C43.3816 9.8361 43.2636 9.86105 43.1593 9.91094C43.055 9.95631 42.9665 10.0221 42.8939 10.1083C42.8214 10.1899 42.7647 10.2874 42.7238 10.4009C42.683 10.5143 42.6626 10.6345 42.6626 10.7615V12.8368H41.8869V9.31897Z" fill="white"/>
<path d="M45.8145 7.97852H46.5902V12.8368H45.8145V7.97852Z" fill="white"/>
<path d="M49.048 12.9321C48.7667 12.9321 48.515 12.8867 48.2927 12.796C48.0749 12.7007 47.889 12.5714 47.7347 12.4081C47.585 12.2448 47.4694 12.0498 47.3877 11.823C47.3106 11.5961 47.272 11.3467 47.272 11.0745C47.272 10.8068 47.3106 10.5596 47.3877 10.3328C47.4694 10.106 47.585 9.91094 47.7347 9.74764C47.889 9.58434 48.0749 9.45732 48.2927 9.3666C48.515 9.27134 48.7667 9.22371 49.048 9.22371C49.3292 9.22371 49.5787 9.27134 49.7964 9.3666C50.0187 9.45732 50.2047 9.58434 50.3544 9.74764C50.5086 9.91094 50.6243 10.106 50.7014 10.3328C50.7831 10.5596 50.8239 10.8068 50.8239 11.0745C50.8239 11.3467 50.7831 11.5961 50.7014 11.823C50.6243 12.0498 50.5086 12.2448 50.3544 12.4081C50.2047 12.5714 50.0187 12.7007 49.7964 12.796C49.5787 12.8867 49.3292 12.9321 49.048 12.9321ZM49.048 12.3197C49.2203 12.3197 49.37 12.2834 49.4971 12.2108C49.6241 12.1382 49.7284 12.043 49.8101 11.925C49.8917 11.8071 49.9507 11.6755 49.987 11.5304C50.0278 11.3807 50.0482 11.2287 50.0482 11.0745C50.0482 10.9248 50.0278 10.7751 49.987 10.6254C49.9507 10.4757 49.8917 10.3442 49.8101 10.2307C49.7284 10.1128 49.6241 10.0175 49.4971 9.94497C49.37 9.87239 49.2203 9.8361 49.048 9.8361C48.8756 9.8361 48.7259 9.87239 48.5989 9.94497C48.4719 10.0175 48.3675 10.1128 48.2859 10.2307C48.2042 10.3442 48.143 10.4757 48.1022 10.6254C48.0659 10.7751 48.0477 10.9248 48.0477 11.0745C48.0477 11.2287 48.0659 11.3807 48.1022 11.5304C48.143 11.6755 48.2042 11.8071 48.2859 11.925C48.3675 12.043 48.4719 12.1382 48.5989 12.2108C48.7259 12.2834 48.8756 12.3197 49.048 12.3197Z" fill="white"/>
<path d="M54.415 12.0543C54.415 12.1496 54.4264 12.2176 54.4491 12.2584C54.4763 12.2993 54.5262 12.3197 54.5988 12.3197C54.6214 12.3197 54.6487 12.3197 54.6804 12.3197C54.7122 12.3197 54.7484 12.3151 54.7893 12.3061V12.8436C54.7621 12.8527 54.7258 12.8618 54.6804 12.8708C54.6396 12.8844 54.5965 12.8958 54.5511 12.9048C54.5058 12.9139 54.4604 12.9207 54.415 12.9253C54.3697 12.9298 54.3311 12.9321 54.2994 12.9321C54.1406 12.9321 54.009 12.9003 53.9047 12.8368C53.8004 12.7733 53.7323 12.6622 53.7006 12.5034C53.5464 12.6531 53.3558 12.762 53.129 12.83C52.9067 12.898 52.6913 12.9321 52.4826 12.9321C52.3238 12.9321 52.1719 12.9094 52.0267 12.864C51.8816 12.8232 51.7523 12.762 51.6389 12.6803C51.53 12.5941 51.4415 12.4875 51.3735 12.3605C51.31 12.2289 51.2782 12.077 51.2782 11.9046C51.2782 11.6869 51.3168 11.51 51.3939 11.3739C51.4756 11.2378 51.5799 11.1312 51.7069 11.0541C51.8385 10.977 51.9836 10.9225 52.1424 10.8908C52.3057 10.8545 52.469 10.8273 52.6323 10.8091C52.7729 10.7819 52.9067 10.7638 53.0338 10.7547C53.1608 10.7411 53.2719 10.7207 53.3672 10.6934C53.467 10.6662 53.5441 10.6254 53.5985 10.571C53.6575 10.512 53.687 10.4258 53.687 10.3124C53.687 10.2126 53.662 10.1309 53.6121 10.0674C53.5668 10.0039 53.5078 9.95631 53.4352 9.92455C53.3672 9.88826 53.2901 9.86558 53.2039 9.85651C53.1177 9.8429 53.036 9.8361 52.9589 9.8361C52.7412 9.8361 52.562 9.88146 52.4214 9.97218C52.2807 10.0629 52.2014 10.2035 52.1832 10.3941H51.4075C51.4211 10.1672 51.4756 9.97899 51.5708 9.82929C51.6661 9.6796 51.7863 9.55939 51.9315 9.46866C52.0812 9.37794 52.249 9.31443 52.435 9.27814C52.621 9.24185 52.8115 9.22371 53.0065 9.22371C53.1789 9.22371 53.349 9.24185 53.5169 9.27814C53.6847 9.31443 53.8344 9.3734 53.966 9.45505C54.102 9.53671 54.2109 9.64331 54.2926 9.77486C54.3742 9.90187 54.415 10.0584 54.415 10.2444V12.0543ZM53.6393 11.0745C53.5214 11.1516 53.3762 11.1992 53.2039 11.2174C53.0315 11.231 52.8591 11.2537 52.6867 11.2854C52.6051 11.299 52.5257 11.3194 52.4486 11.3467C52.3715 11.3693 52.3034 11.4034 52.2445 11.4487C52.1855 11.4895 52.1379 11.5462 52.1016 11.6188C52.0698 11.6869 52.0539 11.7708 52.0539 11.8706C52.0539 11.9568 52.0789 12.0294 52.1288 12.0883C52.1787 12.1473 52.2377 12.1949 52.3057 12.2312C52.3783 12.263 52.4554 12.2857 52.537 12.2993C52.6232 12.3129 52.7003 12.3197 52.7684 12.3197C52.8546 12.3197 52.9476 12.3083 53.0474 12.2857C53.1472 12.263 53.2402 12.2244 53.3263 12.17C53.4171 12.1155 53.4919 12.0475 53.5509 11.9658C53.6099 11.8797 53.6393 11.7753 53.6393 11.6528V11.0745Z" fill="white"/>
<path d="M58.5634 12.8368H57.8285V12.3605H57.8149C57.7106 12.5646 57.5586 12.7121 57.359 12.8028C57.1594 12.889 56.9485 12.9321 56.7262 12.9321C56.4495 12.9321 56.2068 12.8844 55.9982 12.7892C55.794 12.6894 55.6239 12.5556 55.4878 12.3877C55.3517 12.2199 55.2497 12.0226 55.1816 11.7957C55.1136 11.5644 55.0796 11.3172 55.0796 11.0541C55.0796 10.7365 55.1227 10.4621 55.2089 10.2307C55.295 9.9994 55.4084 9.80888 55.5491 9.65918C55.6942 9.50949 55.8575 9.40062 56.039 9.33258C56.225 9.26 56.4132 9.22371 56.6037 9.22371C56.7126 9.22371 56.8237 9.23505 56.9372 9.25773C57.0506 9.27587 57.1594 9.30763 57.2638 9.35299C57.3681 9.39835 57.4634 9.45732 57.5495 9.5299C57.6403 9.59794 57.7151 9.6796 57.7741 9.77486H57.7877V7.97852H58.5634V12.8368ZM55.8553 11.1153C55.8553 11.265 55.8734 11.4124 55.9097 11.5576C55.9505 11.7027 56.0095 11.832 56.0866 11.9454C56.1683 12.0588 56.2703 12.1496 56.3928 12.2176C56.5153 12.2857 56.6604 12.3197 56.8283 12.3197C57.0007 12.3197 57.1481 12.2834 57.2706 12.2108C57.3976 12.1382 57.4996 12.043 57.5768 11.925C57.6584 11.8071 57.7174 11.6755 57.7537 11.5304C57.7945 11.3807 57.8149 11.2287 57.8149 11.0745C57.8149 10.6844 57.7265 10.3804 57.5495 10.1627C57.3772 9.94497 57.1413 9.8361 56.8419 9.8361C56.6604 9.8361 56.5062 9.87465 56.3792 9.95177C56.2567 10.0243 56.1547 10.1219 56.073 10.2444C55.9959 10.3623 55.9392 10.4984 55.9029 10.6526C55.8711 10.8023 55.8553 10.9565 55.8553 11.1153Z" fill="white"/>
<path d="M62.9158 12.9321C62.6345 12.9321 62.3828 12.8867 62.1605 12.796C61.9427 12.7007 61.7568 12.5714 61.6025 12.4081C61.4528 12.2448 61.3372 12.0498 61.2555 11.823C61.1784 11.5961 61.1398 11.3467 61.1398 11.0745C61.1398 10.8068 61.1784 10.5596 61.2555 10.3328C61.3372 10.106 61.4528 9.91094 61.6025 9.74764C61.7568 9.58434 61.9427 9.45732 62.1605 9.3666C62.3828 9.27134 62.6345 9.22371 62.9158 9.22371C63.197 9.22371 63.4465 9.27134 63.6642 9.3666C63.8865 9.45732 64.0725 9.58434 64.2222 9.74764C64.3764 9.91094 64.4921 10.106 64.5692 10.3328C64.6509 10.5596 64.6917 10.8068 64.6917 11.0745C64.6917 11.3467 64.6509 11.5961 64.5692 11.823C64.4921 12.0498 64.3764 12.2448 64.2222 12.4081C64.0725 12.5714 63.8865 12.7007 63.6642 12.796C63.4465 12.8867 63.197 12.9321 62.9158 12.9321ZM62.9158 12.3197C63.0881 12.3197 63.2378 12.2834 63.3648 12.2108C63.4919 12.1382 63.5962 12.043 63.6778 11.925C63.7595 11.8071 63.8185 11.6755 63.8548 11.5304C63.8956 11.3807 63.916 11.2287 63.916 11.0745C63.916 10.9248 63.8956 10.7751 63.8548 10.6254C63.8185 10.4757 63.7595 10.3442 63.6778 10.2307C63.5962 10.1128 63.4919 10.0175 63.3648 9.94497C63.2378 9.87239 63.0881 9.8361 62.9158 9.8361C62.7434 9.8361 62.5937 9.87239 62.4667 9.94497C62.3397 10.0175 62.2353 10.1128 62.1537 10.2307C62.072 10.3442 62.0108 10.4757 61.97 10.6254C61.9337 10.7751 61.9155 10.9248 61.9155 11.0745C61.9155 11.2287 61.9337 11.3807 61.97 11.5304C62.0108 11.6755 62.072 11.8071 62.1537 11.925C62.2353 12.043 62.3397 12.1382 62.4667 12.2108C62.5937 12.2834 62.7434 12.3197 62.9158 12.3197Z" fill="white"/>
<path d="M65.3366 9.31897H66.0714V9.8361L66.085 9.8497C66.203 9.65465 66.3572 9.50268 66.5477 9.39381C66.7382 9.28041 66.9492 9.22371 67.1805 9.22371C67.5661 9.22371 67.87 9.3235 68.0923 9.5231C68.3146 9.72269 68.4257 10.0221 68.4257 10.4213V12.8368H67.65V10.6254C67.641 10.3487 67.582 10.1491 67.4731 10.0266C67.3642 9.8996 67.1941 9.8361 66.9628 9.8361C66.8312 9.8361 66.7133 9.86105 66.609 9.91094C66.5046 9.95631 66.4162 10.0221 66.3436 10.1083C66.271 10.1899 66.2143 10.2874 66.1735 10.4009C66.1327 10.5143 66.1123 10.6345 66.1123 10.7615V12.8368H65.3366V9.31897Z" fill="white"/>
<path d="M70.7837 9.31897H71.3689V8.2643H72.1445V9.31897H72.8454V9.89733H72.1445V11.7753C72.1445 11.857 72.1468 11.9273 72.1514 11.9863C72.1604 12.0452 72.1763 12.0951 72.199 12.136C72.2262 12.1768 72.2648 12.2085 72.3147 12.2312C72.3646 12.2494 72.4326 12.2584 72.5188 12.2584C72.5732 12.2584 72.6277 12.2584 72.6821 12.2584C72.7365 12.2539 72.791 12.2448 72.8454 12.2312V12.83C72.7592 12.8391 72.6753 12.8481 72.5936 12.8572C72.512 12.8663 72.4281 12.8708 72.3419 12.8708C72.1377 12.8708 71.9722 12.8527 71.8452 12.8164C71.7227 12.7756 71.6252 12.7189 71.5526 12.6463C71.4845 12.5692 71.4369 12.4739 71.4097 12.3605C71.387 12.2471 71.3734 12.1178 71.3689 11.9727V9.89733H70.7837V9.31897Z" fill="white"/>
<path d="M73.4034 7.97852H74.1791V9.78166H74.1927C74.288 9.62289 74.4286 9.49134 74.6146 9.38701C74.8051 9.27814 75.016 9.22371 75.2474 9.22371C75.633 9.22371 75.9369 9.3235 76.1592 9.5231C76.3814 9.72269 76.4926 10.0221 76.4926 10.4213V12.8368H75.7169V10.6254C75.7078 10.3487 75.6488 10.1491 75.54 10.0266C75.4311 9.8996 75.261 9.8361 75.0296 9.8361C74.8981 9.8361 74.7801 9.86105 74.6758 9.91094C74.5715 9.95631 74.483 10.0221 74.4104 10.1083C74.3379 10.1899 74.2812 10.2874 74.2403 10.4009C74.1995 10.5143 74.1791 10.6345 74.1791 10.7615V12.8368H73.4034V7.97852Z" fill="white"/>
<path d="M79.7261 10.7683C79.717 10.6458 79.6898 10.5279 79.6445 10.4145C79.6036 10.3011 79.5447 10.2035 79.4675 10.1219C79.395 10.0357 79.3042 9.96765 79.1954 9.91775C79.091 9.86331 78.9731 9.8361 78.8415 9.8361C78.7055 9.8361 78.5807 9.86105 78.4673 9.91094C78.3584 9.95631 78.2632 10.0221 78.1815 10.1083C78.1044 10.1899 78.0409 10.2874 77.991 10.4009C77.9456 10.5143 77.9207 10.6367 77.9162 10.7683H79.7261ZM77.9162 11.2786C77.9162 11.4147 77.9343 11.5462 77.9706 11.6733C78.0114 11.8003 78.0704 11.9114 78.1475 12.0067C78.2246 12.1019 78.3221 12.1791 78.4401 12.238C78.558 12.2925 78.6987 12.3197 78.862 12.3197C79.0888 12.3197 79.2702 12.272 79.4063 12.1768C79.5469 12.077 79.6513 11.9296 79.7193 11.7345H80.4542C80.4133 11.925 80.343 12.0951 80.2432 12.2448C80.1434 12.3945 80.0232 12.5215 79.8826 12.6259C79.742 12.7257 79.5832 12.8005 79.4063 12.8504C79.2339 12.9048 79.0525 12.9321 78.862 12.9321C78.5852 12.9321 78.3403 12.8867 78.1271 12.796C77.9139 12.7053 77.7324 12.5782 77.5827 12.4149C77.4376 12.2516 77.3264 12.0566 77.2493 11.8298C77.1768 11.603 77.1405 11.3535 77.1405 11.0813C77.1405 10.8318 77.179 10.5959 77.2561 10.3736C77.3378 10.1468 77.4512 9.9495 77.5964 9.78166C77.746 9.60928 77.9252 9.4732 78.1339 9.3734C78.3426 9.27361 78.5784 9.22371 78.8415 9.22371C79.1182 9.22371 79.3655 9.28268 79.5832 9.40062C79.8055 9.51402 79.9892 9.66599 80.1344 9.85651C80.2795 10.047 80.3839 10.267 80.4474 10.5165C80.5154 10.7615 80.5336 11.0155 80.5018 11.2786H77.9162Z" fill="white"/>
<path d="M31.0547 15.1363H32.656L35.9669 23.7326H34.3536L33.5469 21.4571H30.1156L29.309 23.7326H27.7559L31.0547 15.1363ZM30.525 20.3133H33.1496L31.8614 16.6172H31.8252L30.525 20.3133Z" fill="white"/>
<path d="M36.2736 17.5081H37.5739V18.3509H37.598C37.7906 17.9897 38.0595 17.7329 38.4046 17.5804C38.7498 17.4198 39.123 17.3396 39.5243 17.3396C40.0139 17.3396 40.4393 17.4279 40.8005 17.6044C41.1697 17.773 41.4747 18.0098 41.7155 18.3148C41.9563 18.6117 42.1369 18.9609 42.2573 19.3622C42.3777 19.7635 42.4379 20.1929 42.4379 20.6504C42.4379 21.0678 42.3817 21.4732 42.2693 21.8664C42.165 22.2597 42.0004 22.6089 41.7757 22.9139C41.559 23.2109 41.2821 23.4517 40.945 23.6363C40.6079 23.8128 40.2106 23.9011 39.7531 23.9011C39.5524 23.9011 39.3517 23.8811 39.1511 23.8409C38.9504 23.8088 38.7578 23.7527 38.5732 23.6724C38.3886 23.5921 38.216 23.4918 38.0555 23.3714C37.903 23.243 37.7745 23.0945 37.6702 22.9259H37.6461V26.0321H36.2736V17.5081ZM41.0654 20.6264C41.0654 20.3454 41.0293 20.0725 40.957 19.8077C40.8848 19.5428 40.7764 19.31 40.6319 19.1094C40.4875 18.9007 40.3069 18.7362 40.0902 18.6158C39.8734 18.4873 39.6246 18.4231 39.3437 18.4231C38.7658 18.4231 38.3284 18.6238 38.0314 19.0251C37.7424 19.4264 37.598 19.9602 37.598 20.6264C37.598 20.9394 37.6341 21.2324 37.7063 21.5053C37.7866 21.7701 37.903 21.9989 38.0555 22.1915C38.208 22.3842 38.3886 22.5367 38.5973 22.649C38.814 22.7614 39.0628 22.8176 39.3437 22.8176C39.6567 22.8176 39.9216 22.7534 40.1383 22.6249C40.355 22.4965 40.5316 22.332 40.6681 22.1313C40.8125 21.9226 40.9129 21.6899 40.9691 21.433C41.0333 21.1682 41.0654 20.8993 41.0654 20.6264Z" fill="white"/>
<path d="M43.2784 17.5081H44.5787V18.3509H44.6028C44.7954 17.9897 45.0643 17.7329 45.4094 17.5804C45.7546 17.4198 46.1278 17.3396 46.5291 17.3396C47.0187 17.3396 47.4441 17.4279 47.8053 17.6044C48.1745 17.773 48.4795 18.0098 48.7203 18.3148C48.9611 18.6117 49.1417 18.9609 49.2621 19.3622C49.3825 19.7635 49.4427 20.1929 49.4427 20.6504C49.4427 21.0678 49.3865 21.4732 49.2741 21.8664C49.1698 22.2597 49.0053 22.6089 48.7805 22.9139C48.5638 23.2109 48.2869 23.4517 47.9498 23.6363C47.6127 23.8128 47.2154 23.9011 46.7579 23.9011C46.5572 23.9011 46.3565 23.8811 46.1559 23.8409C45.9552 23.8088 45.7626 23.7527 45.578 23.6724C45.3934 23.5921 45.2208 23.4918 45.0603 23.3714C44.9078 23.243 44.7794 23.0945 44.675 22.9259H44.6509V26.0321H43.2784V17.5081ZM48.0702 20.6264C48.0702 20.3454 48.0341 20.0725 47.9618 19.8077C47.8896 19.5428 47.7812 19.31 47.6368 19.1094C47.4923 18.9007 47.3117 18.7362 47.095 18.6158C46.8783 18.4873 46.6294 18.4231 46.3485 18.4231C45.7706 18.4231 45.3332 18.6238 45.0362 19.0251C44.7472 19.4264 44.6028 19.9602 44.6028 20.6264C44.6028 20.9394 44.6389 21.2324 44.7111 21.5053C44.7914 21.7701 44.9078 21.9989 45.0603 22.1915C45.2128 22.3842 45.3934 22.5367 45.6021 22.649C45.8188 22.7614 46.0676 22.8176 46.3485 22.8176C46.6615 22.8176 46.9264 22.7534 47.1431 22.6249C47.3598 22.4965 47.5364 22.332 47.6729 22.1313C47.8173 21.9226 47.9177 21.6899 47.9739 21.433C48.0381 21.1682 48.0702 20.8993 48.0702 20.6264Z" fill="white"/>
<path d="M54.4225 20.8672C54.4225 21.1962 54.4787 21.4772 54.5911 21.7099C54.7034 21.9427 54.86 22.1353 55.0606 22.2878C55.2613 22.4323 55.49 22.5407 55.7469 22.6129C56.0117 22.6771 56.2967 22.7092 56.6017 22.7092C56.9308 22.7092 57.2117 22.6731 57.4445 22.6009C57.6772 22.5206 57.8658 22.4203 58.0103 22.2999C58.1548 22.1795 58.2591 22.043 58.3233 21.8905C58.3876 21.73 58.4197 21.5695 58.4197 21.4089C58.4197 21.0799 58.3434 20.8391 58.1909 20.6866C58.0464 20.526 57.8859 20.4137 57.7093 20.3495C57.4043 20.2371 57.0471 20.1327 56.6378 20.0364C56.2365 19.9321 55.7388 19.7997 55.1449 19.6391C54.7757 19.5428 54.4667 19.4184 54.2178 19.2659C53.977 19.1054 53.7844 18.9288 53.6399 18.7362C53.4955 18.5435 53.3911 18.3388 53.3269 18.1221C53.2707 17.9054 53.2426 17.6847 53.2426 17.46C53.2426 17.0265 53.3309 16.6533 53.5075 16.3403C53.6921 16.0192 53.9329 15.7543 54.2299 15.5457C54.5269 15.337 54.864 15.1845 55.2412 15.0882C55.6184 14.9838 55.9997 14.9316 56.385 14.9316C56.8344 14.9316 57.2558 14.9918 57.6491 15.1122C58.0504 15.2246 58.3996 15.3972 58.6966 15.6299C59.0016 15.8627 59.2424 16.1517 59.4189 16.4968C59.5955 16.8339 59.6838 17.2272 59.6838 17.6767H58.1789C58.1387 17.1228 57.9501 16.7336 57.613 16.5088C57.2759 16.2761 56.8465 16.1597 56.3248 16.1597C56.1482 16.1597 55.9676 16.1797 55.783 16.2199C55.5984 16.252 55.4298 16.3122 55.2773 16.4005C55.1248 16.4807 54.9964 16.5931 54.8921 16.7376C54.7957 16.8821 54.7476 17.0626 54.7476 17.2794C54.7476 17.5844 54.8399 17.8252 55.0245 18.0017C55.2171 18.1703 55.4659 18.2987 55.7709 18.387C55.8031 18.395 55.9275 18.4311 56.1442 18.4954C56.3689 18.5515 56.6177 18.6158 56.8906 18.688C57.1635 18.7602 57.4284 18.8325 57.6852 18.9047C57.9501 18.9689 58.1387 19.0171 58.2511 19.0492C58.532 19.1375 58.7768 19.2579 58.9855 19.4104C59.1942 19.5629 59.3668 19.7395 59.5032 19.9401C59.6477 20.1327 59.752 20.3414 59.8163 20.5662C59.8885 20.7909 59.9246 21.0156 59.9246 21.2404C59.9246 21.722 59.8243 22.1353 59.6236 22.4805C59.431 22.8176 59.1741 23.0945 58.8531 23.3112C58.532 23.5279 58.1668 23.6844 57.7575 23.7807C57.3481 23.8851 56.9308 23.9373 56.5054 23.9373C56.0158 23.9373 55.5542 23.8771 55.1208 23.7567C54.6874 23.6363 54.3101 23.4517 53.9891 23.2028C53.668 22.954 53.4112 22.637 53.2186 22.2517C53.0259 21.8584 52.9256 21.3969 52.9176 20.8672H54.4225Z" fill="white"/>
<path d="M60.0682 17.5081H61.1036V15.642H62.4761V17.5081H63.7162V18.5315H62.4761V21.8544C62.4761 21.9989 62.4801 22.1233 62.4881 22.2276C62.5042 22.332 62.5323 22.4203 62.5724 22.4925C62.6206 22.5647 62.6888 22.6209 62.7771 22.6611C62.8654 22.6932 62.9858 22.7092 63.1383 22.7092C63.2346 22.7092 63.3309 22.7092 63.4272 22.7092C63.5235 22.7012 63.6198 22.6851 63.7162 22.6611V23.7205C63.5637 23.7366 63.4152 23.7527 63.2707 23.7687C63.1262 23.7848 62.9777 23.7928 62.8252 23.7928C62.464 23.7928 62.1711 23.7607 61.9463 23.6965C61.7296 23.6242 61.5571 23.5239 61.4286 23.3955C61.3082 23.259 61.224 23.0905 61.1758 22.8898C61.1357 22.6892 61.1116 22.4604 61.1036 22.2036V18.5315H60.0682V17.5081Z" fill="white"/>
<path d="M67.2015 23.9011C66.7039 23.9011 66.2584 23.8209 65.8652 23.6603C65.4799 23.4918 65.1508 23.263 64.8779 22.9741C64.613 22.6851 64.4084 22.34 64.2639 21.9387C64.1274 21.5374 64.0592 21.0959 64.0592 20.6143C64.0592 20.1408 64.1274 19.7033 64.2639 19.302C64.4084 18.9007 64.613 18.5556 64.8779 18.2666C65.1508 17.9777 65.4799 17.7529 65.8652 17.5924C66.2584 17.4238 66.7039 17.3396 67.2015 17.3396C67.6992 17.3396 68.1406 17.4238 68.5259 17.5924C68.9192 17.7529 69.2483 17.9777 69.5131 18.2666C69.786 18.5556 69.9907 18.9007 70.1272 19.302C70.2716 19.7033 70.3439 20.1408 70.3439 20.6143C70.3439 21.0959 70.2716 21.5374 70.1272 21.9387C69.9907 22.34 69.786 22.6851 69.5131 22.9741C69.2483 23.263 68.9192 23.4918 68.5259 23.6603C68.1406 23.8209 67.6992 23.9011 67.2015 23.9011ZM67.2015 22.8176C67.5065 22.8176 67.7714 22.7534 67.9962 22.6249C68.2209 22.4965 68.4055 22.328 68.55 22.1193C68.6945 21.9106 68.7988 21.6778 68.863 21.421C68.9352 21.1561 68.9714 20.8872 68.9714 20.6143C68.9714 20.3495 68.9352 20.0846 68.863 19.8197C68.7988 19.5548 68.6945 19.3221 68.55 19.1214C68.4055 18.9127 68.2209 18.7442 67.9962 18.6158C67.7714 18.4873 67.5065 18.4231 67.2015 18.4231C66.8965 18.4231 66.6317 18.4873 66.4069 18.6158C66.1822 18.7442 65.9976 18.9127 65.8531 19.1214C65.7086 19.3221 65.6003 19.5548 65.528 19.8197C65.4638 20.0846 65.4317 20.3495 65.4317 20.6143C65.4317 20.8872 65.4638 21.1561 65.528 21.421C65.6003 21.6778 65.7086 21.9106 65.8531 22.1193C65.9976 22.328 66.1822 22.4965 66.4069 22.6249C66.6317 22.7534 66.8965 22.8176 67.2015 22.8176Z" fill="white"/>
<path d="M71.1296 17.5081H72.4178V18.7121H72.4419C72.482 18.5435 72.5583 18.379 72.6707 18.2184C72.791 18.0579 72.9315 17.9134 73.092 17.785C73.2606 17.6486 73.4452 17.5402 73.6459 17.46C73.8465 17.3797 74.0512 17.3396 74.2599 17.3396C74.4204 17.3396 74.5288 17.3436 74.5849 17.3516C74.6492 17.3596 74.7134 17.3677 74.7776 17.3757V18.7C74.6813 18.684 74.5809 18.6719 74.4766 18.6639C74.3803 18.6479 74.284 18.6398 74.1876 18.6398C73.9549 18.6398 73.7341 18.688 73.5255 18.7843C73.3248 18.8726 73.1482 19.0091 72.9957 19.1937C72.8432 19.3702 72.7228 19.591 72.6345 19.8558C72.5462 20.1207 72.5021 20.4257 72.5021 20.7708V23.7326H71.1296V17.5081Z" fill="white"/>
<path d="M79.0693 20.0725C79.0533 19.8558 79.0051 19.6471 78.9249 19.4465C78.8526 19.2458 78.7483 19.0733 78.6118 18.9288C78.4834 18.7763 78.3229 18.6559 78.1303 18.5676C77.9456 18.4713 77.737 18.4231 77.5042 18.4231C77.2634 18.4231 77.0427 18.4673 76.842 18.5556C76.6494 18.6358 76.4808 18.7522 76.3363 18.9047C76.1999 19.0492 76.0875 19.2217 75.9992 19.4224C75.919 19.6231 75.8748 19.8398 75.8668 20.0725H79.0693ZM75.8668 20.9755C75.8668 21.2163 75.8989 21.4491 75.9631 21.6738C76.0354 21.8986 76.1397 22.0952 76.2762 22.2638C76.4126 22.4323 76.5852 22.5688 76.7939 22.6731C77.0025 22.7694 77.2514 22.8176 77.5403 22.8176C77.9416 22.8176 78.2627 22.7333 78.5035 22.5647C78.7523 22.3882 78.9369 22.1273 79.0573 21.7822H80.3576C80.2853 22.1193 80.1609 22.4203 79.9844 22.6851C79.8078 22.95 79.5951 23.1748 79.3463 23.3594C79.0974 23.5359 78.8165 23.6684 78.5035 23.7567C78.1985 23.853 77.8774 23.9011 77.5403 23.9011C77.0507 23.9011 76.6173 23.8209 76.24 23.6603C75.8628 23.4998 75.5417 23.2751 75.2769 22.9861C75.02 22.6972 74.8234 22.352 74.6869 21.9507C74.5585 21.5494 74.4943 21.108 74.4943 20.6264C74.4943 20.1849 74.5625 19.7675 74.699 19.3743C74.8434 18.9729 75.0441 18.6238 75.3009 18.3268C75.5658 18.0218 75.8829 17.781 76.2521 17.6044C76.6213 17.4279 77.0387 17.3396 77.5042 17.3396C77.9938 17.3396 78.4312 17.4439 78.8165 17.6526C79.2098 17.8532 79.5349 18.1221 79.7917 18.4592C80.0486 18.7964 80.2332 19.1856 80.3455 19.6271C80.4659 20.0605 80.498 20.51 80.4419 20.9755H75.8668Z" fill="white"/>
</svg>
