<svg width="70" height="29" viewBox="0 0 70 29" fill="none" xmlns="http://www.w3.org/2000/svg">
<g clip-path="url(#clip0_124_1580)">
<path fill-rule="evenodd" clip-rule="evenodd" d="M1.53884 14.5382L1.25391 14.2291C1.51396 13.945 1.824 13.7194 2.16599 13.5654C2.50797 13.4114 2.87501 13.332 3.24579 13.332C3.61656 13.332 3.98361 13.4114 4.32559 13.5654C4.66757 13.7194 4.97762 13.945 5.23767 14.2291L4.94752 14.527C4.72511 14.2857 4.46046 14.0942 4.16885 13.9634C3.8772 13.8328 3.56435 13.7655 3.2484 13.7655C2.93246 13.7655 2.61961 13.8328 2.32795 13.9634C2.03635 14.0942 1.77169 14.2857 1.54929 14.527M2.55307 15.561L2.29166 15.28C2.41863 15.1393 2.57059 15.0274 2.7385 14.9511C2.90647 14.8747 3.08697 14.8353 3.26931 14.8353C3.45169 14.8353 3.6322 14.8747 3.80011 14.9511C3.96803 15.0274 4.11998 15.1393 4.24696 15.28L3.98555 15.561C3.79668 15.3608 3.54243 15.2479 3.27715 15.2463C3.14553 15.2452 3.01501 15.2726 2.89331 15.3266C2.77165 15.3807 2.66132 15.4604 2.56874 15.561M3.27715 16.3141L2.77006 15.7802C2.90763 15.64 3.08779 15.5582 3.27715 15.5498C3.46544 15.5561 3.64458 15.6384 3.77906 15.7802L3.27715 16.3141ZM3.27715 14.527C3.498 14.525 3.71683 14.5719 3.92012 14.6647C4.12336 14.7575 4.30667 14.8943 4.45867 15.0665L4.775 14.7265C4.57998 14.5098 4.34645 14.3375 4.08823 14.2198C3.83002 14.1021 3.5524 14.0414 3.27192 14.0414C2.99145 14.0414 2.71387 14.1021 2.45565 14.2198C2.19744 14.3375 1.96386 14.5098 1.76889 14.7265L2.08256 15.0693C2.23649 14.8965 2.42159 14.7593 2.62653 14.6661C2.83151 14.5728 3.05198 14.5255 3.27453 14.527" fill="#0E6EB6"/>
<path fill-rule="evenodd" clip-rule="evenodd" d="M1.36375 16.6855H5.08872C2.41719 23.9515 1.9519 28.2099 4.66264 28.0974C-1.28427 28.474 -0.513103 22.2622 1.36637 16.6855" fill="#0E6EB6"/>
<path fill-rule="evenodd" clip-rule="evenodd" d="M4.78809 5.54064C8.18634 -0.412671 13.6966 -1.01978 17.6229 1.14731C21.9779 3.5562 23.3214 9.12999 22.2366 14.0377C21.2825 18.5013 18.5482 22.5797 15.0141 25.2022C12.8508 26.7802 10.3929 27.8306 7.81248 28.2801C9.79086 27.5862 11.5613 26.3374 12.9412 24.6625C13.7976 23.6626 14.5392 22.5557 15.15 21.3655C17.155 18.459 18.0829 15.6117 18.1483 13.1326C18.279 9.80744 16.9328 6.50754 14.0914 4.98125C11.6185 3.62927 8.28829 3.69953 4.78809 5.5434" fill="#F26329"/>
<path fill-rule="evenodd" clip-rule="evenodd" d="M2.2214 12.2561C4.99224 6.35341 10.6987 5.94019 14.0602 8.49518C15.3851 9.50607 16.316 11.0076 16.6743 12.7114C17.1317 14.8813 16.7971 17.13 16.039 19.2746C15.3418 21.27 14.2897 23.1002 12.9415 24.663C11.028 26.9369 8.28852 28.6711 5.36083 28.6375C4.19078 28.6441 3.0409 28.31 2.0332 27.6705C3.41598 28.3872 5.56731 28.1343 6.88219 27.5693C9.05706 26.6108 10.8032 24.6237 11.8932 22.4256C13.2395 19.7328 14.3007 15.3986 12.1547 12.9167C10.2072 10.6118 6.3228 9.82471 2.2214 12.2532" fill="#09A14A"/>
<path d="M67.3093 15.6375L67.9679 13.6052C67.89 13.6052 67.806 13.6052 67.7354 13.6052C67.5309 13.5963 67.3263 13.6329 67.1352 13.7127C66.9441 13.7925 66.77 13.9138 66.6251 14.069C66.3329 14.3785 66.1339 14.7751 66.0548 15.2074C65.9969 15.4034 66.0043 15.6146 66.073 15.8061C66.1065 15.8768 66.1582 15.9354 66.2228 15.9744C66.2867 16.0134 66.3603 16.0311 66.4334 16.0253C66.756 16.0035 67.0634 15.8727 67.3117 15.6515M69.4032 12.703L68.0233 16.8686H66.9015L67.0299 16.4723C66.6927 16.7617 66.2794 16.9298 65.8484 16.9529C65.6774 16.9608 65.5082 16.9168 65.3596 16.8257C65.2111 16.7348 65.09 16.6005 65.009 16.4385C64.8179 16.031 64.7796 15.5601 64.9019 15.1231C65.0431 14.3826 65.4296 13.7223 65.9896 13.2652C66.6099 12.7609 67.3744 12.5054 68.1511 12.5428C68.5681 12.538 68.9838 12.5861 69.3904 12.6861M64.8209 12.6327L63.4222 16.8686H62.3009L63.7046 12.6327H64.8209ZM64.0576 11.4465C64.0899 11.269 64.1769 11.1084 64.3042 10.9905C64.432 10.8728 64.5927 10.8046 64.7607 10.7973C64.8325 10.7951 64.9037 10.8111 64.9683 10.8438C65.0334 10.8765 65.0906 10.925 65.135 10.9855C65.1801 11.0505 65.2111 11.126 65.2245 11.206C65.2379 11.2861 65.2343 11.3684 65.2129 11.4465C65.1752 11.6308 65.0833 11.7973 64.9512 11.9215C64.824 12.0356 64.6633 12.099 64.4965 12.1015C64.4271 12.1035 64.3571 12.0883 64.2932 12.0572C64.2293 12.026 64.1727 11.9796 64.1283 11.9215C64.085 11.8525 64.057 11.7741 64.0461 11.692C64.0351 11.6098 64.04 11.526 64.0631 11.4465M60.5469 15.8707L61.2662 13.6699C61.1736 13.6538 61.0799 13.6463 60.9862 13.6474C60.618 13.6391 60.259 13.7682 59.9696 14.0128C59.6942 14.2393 59.5016 14.5627 59.4257 14.9263C59.3922 15.0491 59.386 15.1787 59.4073 15.3045C59.4286 15.4304 59.477 15.5491 59.5485 15.6515C59.6352 15.75 59.7411 15.8265 59.8587 15.8752C59.9763 15.9238 60.1026 15.9434 60.228 15.9325C60.3354 15.9261 60.4424 15.9092 60.5469 15.882M63.4222 10.4937L61.3544 16.8208C60.9192 16.9077 60.4777 16.9556 60.0349 16.9642C59.3627 16.9642 58.8686 16.7786 58.5497 16.402C58.2308 16.0253 58.1423 15.5391 58.27 14.9207C58.4022 14.2542 58.7462 13.6579 59.2427 13.2342C59.7552 12.774 60.4051 12.5284 61.0726 12.5428C61.2522 12.5459 61.4323 12.5609 61.6113 12.5877L62.2985 10.4824L63.4222 10.4937ZM55.7687 12.6327L55.5988 13.1077C56.0025 12.7729 56.4907 12.577 56.9998 12.5456C57.1304 12.5324 57.2621 12.5576 57.3801 12.6184C57.4987 12.6793 57.5994 12.7736 57.6715 12.8913C57.7407 13.039 57.7823 13.2 57.7934 13.365C57.8045 13.5299 57.7856 13.6956 57.7368 13.8526C57.7126 13.9812 57.6802 14.108 57.6405 14.2321L56.7801 16.8714H55.6642L56.4926 14.3417C56.5231 14.2707 56.5463 14.1962 56.5609 14.1196C56.6393 13.7008 56.5609 13.4956 56.3334 13.4956C56.106 13.4956 55.7111 13.7064 55.264 14.1477L54.3673 16.877H53.246L54.647 12.6327H55.7687ZM54.1743 10.4937L52.0828 16.8798H50.8754L52.9664 10.4937H54.1743ZM49.5209 10.4937L47.4299 16.8798H46.3189L48.4103 10.4937H49.5209ZM44.5545 15.6487L45.2078 13.6165C45.1294 13.6165 45.0462 13.6165 44.9755 13.6165C44.7713 13.6077 44.5676 13.6443 44.3774 13.7241C44.1872 13.8039 44.0145 13.9252 43.8698 14.0802C43.5804 14.3823 43.3801 14.7695 43.2944 15.1934C43.2339 15.3893 43.2421 15.6023 43.3181 15.7921C43.3501 15.8625 43.4014 15.9211 43.4647 15.9602C43.5282 15.9992 43.6007 16.0171 43.6738 16.0113C43.9961 15.9873 44.3038 15.8567 44.5545 15.6375M46.6455 12.6889L45.2736 16.8686H44.1573L44.2879 16.4723C43.9501 16.759 43.5388 16.9269 43.1091 16.9529C42.9354 16.9641 42.7621 16.9219 42.6096 16.8314C42.4577 16.7408 42.3324 16.6055 42.2492 16.4413C42.0619 16.0325 42.0237 15.5634 42.1417 15.1259C42.282 14.385 42.6687 13.7244 43.2291 13.2679C43.8514 12.7636 44.6179 12.5081 45.396 12.5456C45.8122 12.5412 46.2269 12.5893 46.6325 12.6889M41.7759 11.7276L41.4464 12.6327H42.27L41.9327 13.5602H41.1042L40.6126 14.9432C40.5695 15.0476 40.538 15.157 40.5187 15.2692C40.4374 15.6487 40.5187 15.8314 40.7461 15.8314C40.9895 15.7936 41.2247 15.7068 41.4386 15.5756L41.2112 16.6999C40.8966 16.8735 40.5501 16.9696 40.1969 16.981C40.0464 16.9925 39.8954 16.9627 39.758 16.8943C39.621 16.826 39.502 16.7214 39.413 16.5903C39.3321 16.4361 39.2813 16.2661 39.2629 16.0904C39.2445 15.9147 39.2591 15.7368 39.3055 15.5671C39.3394 15.4463 39.3738 15.3226 39.413 15.199L40.0115 13.5771H39.2532L39.5828 12.6496H40.3459L40.6624 11.7529L41.7759 11.7276ZM39.0442 12.6327L37.6481 16.8686H36.5322L37.923 12.6327H39.0442ZM38.2729 11.4465C38.3116 11.2666 38.4035 11.1049 38.5346 10.9855C38.6604 10.869 38.8201 10.8024 38.9866 10.7973C39.0587 10.7947 39.1303 10.8104 39.1957 10.8432C39.261 10.8759 39.3185 10.9246 39.3631 10.9855C39.4052 11.0523 39.4342 11.1277 39.4478 11.2071C39.4613 11.2865 39.4589 11.3681 39.4415 11.4465C39.3999 11.6291 39.3089 11.7943 39.1802 11.9215C39.0514 12.033 38.8927 12.0962 38.7277 12.1015C38.6576 12.1052 38.5874 12.0908 38.5235 12.0595C38.4591 12.0283 38.403 11.9809 38.3595 11.9215C38.3144 11.8536 38.2839 11.7757 38.2704 11.6935C38.2569 11.6114 38.2603 11.527 38.2811 11.4465M34.6343 17.8074C34.6709 17.6106 34.5219 17.4645 34.1926 17.3885L33.7247 17.2677C33.5708 17.2777 33.42 17.3187 33.2803 17.3885C33.1963 17.4131 33.1198 17.4611 33.0587 17.5278C32.9977 17.5944 32.9541 17.6774 32.9326 17.7681C32.8751 18.066 33.1209 18.2094 33.675 18.2094C33.9074 18.2197 34.1398 18.1884 34.3625 18.1165C34.4274 18.0942 34.4857 18.0538 34.5316 17.9995C34.5775 17.9453 34.6093 17.879 34.6239 17.8074M34.5769 14.9966C34.9823 14.9966 35.2435 14.6874 35.3611 14.0802C35.3819 14.0073 35.3887 13.9306 35.381 13.8547C35.3732 13.7788 35.3514 13.7054 35.3166 13.639C35.2755 13.5827 35.2218 13.5384 35.1608 13.51C35.0993 13.4816 35.0325 13.4698 34.9663 13.4759C34.5585 13.4759 34.2893 13.7823 34.1534 14.4091C34.0776 14.7942 34.2109 14.9966 34.5664 14.9966M37.2823 12.6327L36.9842 13.5602H36.3856C36.4267 13.7849 36.4267 14.0159 36.3856 14.2405C36.2946 14.6781 36.0648 15.0677 35.7347 15.3423C35.3814 15.6412 34.9426 15.799 34.4932 15.7892C34.3182 15.784 34.1431 15.7972 33.9704 15.8286C33.9235 15.8335 33.8794 15.8548 33.8449 15.8894C33.8103 15.9239 33.7874 15.9697 33.7795 16.0197C33.7665 16.0703 33.7795 16.1153 33.8528 16.1715C34.1094 16.2534 34.3716 16.3135 34.6369 16.3514C35.0998 16.4385 35.4211 16.5791 35.5726 16.8067C35.6563 16.9256 35.7129 17.0635 35.7381 17.2098C35.7638 17.3561 35.7569 17.5068 35.7192 17.65C35.5334 18.5663 34.7912 19.0329 33.4946 19.0329C33.0517 19.0685 32.6083 18.9711 32.2138 18.7518C32.0893 18.6774 31.9915 18.5603 31.936 18.4192C31.8807 18.2781 31.8707 18.1211 31.9079 17.9732C31.9942 17.5685 32.3654 17.2396 33.0294 17.026C32.8938 16.9594 32.7839 16.8442 32.7186 16.7001C32.6533 16.556 32.6365 16.392 32.6712 16.2361C32.7522 15.8426 33.0581 15.5812 33.5888 15.4548C33.4096 15.3225 33.274 15.1328 33.2012 14.9127C33.1285 14.6926 33.1223 14.4534 33.1836 14.2292C33.2868 13.7768 33.5359 13.3784 33.8867 13.1049C34.256 12.7867 34.7181 12.6194 35.1913 12.6327H37.2823ZM32.8386 12.6327L31.4426 16.8798H30.3265L31.7041 12.6327H32.8386ZM32.0543 11.4465C32.0934 11.2668 32.185 11.1052 32.3157 10.9855C32.4409 10.8707 32.5983 10.8044 32.7627 10.7973C32.8346 10.796 32.9059 10.8123 32.9711 10.8449C33.0362 10.8775 33.0937 10.9256 33.1391 10.9855C33.1831 11.0514 33.2124 11.1272 33.2247 11.2071C33.2369 11.2871 33.2318 11.369 33.2097 11.4465C33.1685 11.6293 33.0775 11.7947 32.9483 11.9215C32.8194 12.0359 32.658 12.0994 32.4909 12.1015C32.4211 12.1041 32.3517 12.0892 32.2881 12.058C32.2246 12.0267 32.1687 11.98 32.1249 11.9215C32.0827 11.8521 32.0541 11.7743 32.0406 11.6926C32.0271 11.611 32.0292 11.5273 32.0465 11.4465M27.1243 11.5561L25.7441 15.8117H26.8681C27.1479 15.817 27.4258 15.7622 27.6856 15.6508C27.9455 15.5393 28.1821 15.3733 28.3817 15.1624C28.807 14.7382 29.097 14.1805 29.2102 13.5687C29.2776 13.3226 29.2931 13.0635 29.2555 12.8102C29.218 12.5568 29.1284 12.3156 28.9933 12.1042C28.8367 11.9078 28.6389 11.7544 28.4161 11.6566C28.1934 11.5588 27.9521 11.5196 27.7124 11.5421L27.1243 11.5561ZM26.28 10.4937H28.1568C29.1031 10.4937 29.7671 10.7748 30.1513 11.3594C30.5356 11.944 30.6297 12.6889 30.4467 13.608C30.2737 14.5116 29.8379 15.3326 29.2025 15.9522C28.6446 16.5437 27.8946 16.8784 27.1112 16.8854H24.1992L26.28 10.4937Z" fill="white"/>
<path fill-rule="evenodd" clip-rule="evenodd" d="M24.6697 21.2344H25.3154C25.5273 21.2418 25.735 21.1703 25.9036 21.032C25.9731 20.9667 26.0279 20.8851 26.0637 20.7935C26.0995 20.7019 26.1153 20.6028 26.11 20.5036C26.1151 20.4032 26.0993 20.3028 26.0635 20.2099C26.0278 20.117 25.9731 20.0339 25.9036 19.9667C25.7362 19.8268 25.5269 19.7578 25.3154 19.7728H24.6697V21.2344ZM24.6697 21.6195V23.2441H24.2881V19.3792H25.2317C25.5655 19.3604 25.8959 19.4591 26.1728 19.6603C26.2883 19.7617 26.3799 19.8908 26.4403 20.0373C26.5007 20.1838 26.5281 20.3436 26.5205 20.5036C26.5263 20.6601 26.4978 20.8159 26.4375 20.9584C26.3771 21.101 26.2864 21.2263 26.1728 21.3243C25.8994 21.5352 25.5677 21.6402 25.2317 21.6222L24.6697 21.6195Z" fill="white"/>
<path fill-rule="evenodd" clip-rule="evenodd" d="M28.0575 22.8685C28.1745 22.8715 28.2908 22.848 28.3989 22.7996C28.507 22.7512 28.6044 22.6789 28.6849 22.5875C28.77 22.4929 28.8368 22.3811 28.8817 22.2587C28.9266 22.1361 28.9485 22.0054 28.9463 21.8738C28.9498 21.7425 28.9285 21.6117 28.8835 21.4895C28.8385 21.3673 28.771 21.2561 28.6849 21.1629C28.6067 21.0668 28.5102 20.99 28.402 20.9376C28.2937 20.8852 28.1762 20.8586 28.0575 20.8594C27.9374 20.8565 27.8181 20.8823 27.7083 20.9348C27.5985 20.9872 27.5008 21.0651 27.4223 21.1629C27.3365 21.2564 27.2692 21.3676 27.2243 21.4898C27.1794 21.6119 27.1578 21.7425 27.1609 21.8738C27.1569 22.1395 27.2509 22.3961 27.4223 22.5875C27.5033 22.6806 27.6018 22.7539 27.7114 22.8024C27.8211 22.8508 27.9391 22.8734 28.0575 22.8685ZM28.0575 23.2507C27.8892 23.2581 27.7214 23.2272 27.565 23.1598C27.4087 23.0925 27.2674 22.9904 27.1505 22.8601C26.9198 22.5854 26.792 22.2284 26.792 21.8584C26.792 21.4882 26.9198 21.1313 27.1505 20.8566C27.3923 20.6017 27.7175 20.459 28.0562 20.459C28.3949 20.459 28.7201 20.6017 28.962 20.8566C29.19 21.1327 29.3159 21.4891 29.3159 21.8584C29.3159 22.2276 29.19 22.584 28.962 22.8601C28.8457 22.9898 28.7053 23.0916 28.5498 23.1589C28.3944 23.2262 28.2276 23.2575 28.0601 23.2507" fill="white"/>
<path fill-rule="evenodd" clip-rule="evenodd" d="M30.8209 22.5514L31.5267 20.4102H31.7594L32.4782 22.5486L33.2311 20.4495H33.5814L32.5723 23.2455H32.3423L31.6365 21.1492L30.9229 23.2455H30.6955L29.6865 20.4495H30.0733L30.8209 22.5514Z" fill="white"/>
<path fill-rule="evenodd" clip-rule="evenodd" d="M35.7143 21.5205C35.6916 21.3734 35.634 21.2351 35.5473 21.1187C35.4805 21.0314 35.3954 20.9622 35.2991 20.9168C35.2028 20.8714 35.0978 20.8511 34.9928 20.8573C34.8921 20.8611 34.7934 20.8882 34.7032 20.9367C34.613 20.9852 34.5335 21.0539 34.4702 21.1383C34.39 21.2546 34.3291 21.3848 34.2899 21.5233L35.7143 21.5205ZM34.2376 21.8521C34.2368 21.983 34.2607 22.1128 34.3079 22.2335C34.3551 22.3542 34.4245 22.4635 34.512 22.5546C34.5969 22.651 34.6995 22.7273 34.8134 22.7786C34.9274 22.8299 35.0499 22.8551 35.1733 22.8524C35.3247 22.8528 35.4753 22.8243 35.618 22.7681C35.769 22.7032 35.9098 22.6142 36.0361 22.504L36.1198 22.4281V22.8608H36.0937C35.9635 22.9815 35.815 23.0766 35.6543 23.1418C35.4152 23.2333 35.1573 23.2538 34.9081 23.2014C34.6588 23.149 34.4272 23.0256 34.2376 22.844C34.1167 22.7133 34.0221 22.5573 33.9596 22.3858C33.8971 22.2142 33.8681 22.0306 33.8742 21.8464C33.8603 21.4811 33.972 21.123 34.1879 20.8405C34.2862 20.7136 34.4099 20.6123 34.5498 20.5441C34.6897 20.476 34.8423 20.4428 34.9957 20.447C35.1515 20.4377 35.3068 20.4659 35.4515 20.5296C35.5957 20.5933 35.7249 20.6909 35.8295 20.8152C36.0255 21.0872 36.1271 21.424 36.1169 21.7678V21.8239L34.2376 21.8521Z" fill="white"/>
<path fill-rule="evenodd" clip-rule="evenodd" d="M37.2824 20.8559C37.3318 20.757 37.399 20.6698 37.4803 20.5993C37.5616 20.5287 37.655 20.4763 37.7557 20.4452C37.8558 20.414 37.9608 20.4047 38.0644 20.4179C38.1684 20.431 38.2686 20.4662 38.3595 20.5215C38.3649 20.5218 38.3697 20.5238 38.3741 20.5274C38.3785 20.5309 38.3813 20.5357 38.3828 20.5412V20.9795C38.3595 20.9655 38.3828 20.9795 38.3513 20.9795C37.761 20.6254 37.4 21.1341 37.2824 21.4797V23.2387H36.9189V20.4288H37.2824V20.8559Z" fill="white"/>
<path fill-rule="evenodd" clip-rule="evenodd" d="M41.0384 19.7839H39.8857V19.4297H42.5782V19.7839H41.4256V23.2046H41.0384V19.7839Z" fill="white"/>
<path fill-rule="evenodd" clip-rule="evenodd" d="M47.3159 19.8428V21.0768H48.7743V21.4422H47.3159V22.8223H49.0463V23.1905H46.9316V19.4746H48.9781V19.8428H47.3159Z" fill="white"/>
<path fill-rule="evenodd" clip-rule="evenodd" d="M50.0914 20.8031C50.1785 20.6866 50.2889 20.5926 50.4142 20.5279C50.5395 20.4632 50.677 20.4296 50.8158 20.4293C50.9426 20.4243 51.0689 20.4482 51.1865 20.4995C51.3041 20.5508 51.4106 20.6285 51.4982 20.7272C51.5553 20.7938 51.6056 20.8674 51.6472 20.9464L51.6995 20.8536C51.7885 20.7236 51.9047 20.6175 52.0387 20.5434C52.1722 20.4693 52.3198 20.4293 52.4703 20.4266C52.5971 20.4211 52.7239 20.4448 52.8415 20.4962C52.9591 20.5475 53.0651 20.6254 53.1527 20.7244C53.2417 20.826 53.3104 20.9457 53.3554 21.0766C53.4004 21.2074 53.4202 21.3466 53.414 21.4859V23.1494H53.0351V21.5028C53.0433 21.3184 52.9842 21.1378 52.8705 20.9998C52.8159 20.9342 52.7481 20.883 52.6726 20.8498C52.5971 20.8167 52.5154 20.8027 52.4336 20.8087C52.3261 20.8142 52.2211 20.8452 52.1263 20.8997C52.0314 20.9541 51.9491 21.0305 51.8848 21.1234C51.8364 21.1755 51.7943 21.2341 51.7595 21.2976V23.1494H51.3806V21.5028C51.3849 21.4114 51.3728 21.3199 51.3448 21.2336C51.3167 21.1473 51.2726 21.0678 51.2156 20.9998C51.1609 20.935 51.0931 20.8843 51.0176 20.8513C50.9421 20.8182 50.8604 20.8037 50.7791 20.8087C50.6711 20.8146 50.5652 20.8457 50.4698 20.9001C50.374 20.9545 50.2903 21.0307 50.225 21.1234C50.179 21.1784 50.136 21.2366 50.0968 21.2976V23.1494H49.7256V20.4799H50.0914V20.8031Z" fill="white"/>
<path d="M54.2236 20.486H54.603V20.8233C54.6824 20.6798 54.8077 20.5728 54.9558 20.5225C55.1799 20.4259 55.4252 20.4009 55.6623 20.4509C55.8994 20.5007 56.1177 20.6232 56.2914 20.8036C56.5106 21.088 56.6316 21.4451 56.634 21.8144C56.6364 22.1837 56.5198 22.5425 56.3045 22.8302C55.8496 23.3642 55.1832 23.2434 54.6393 22.9342L54.603 22.9089V24.2103H54.2236V20.486ZM55.7504 20.9722C55.4368 20.753 54.979 20.8036 54.6108 21.3348V22.4226C54.995 22.8667 55.4915 22.9089 55.821 22.6503C55.9362 22.5448 56.0277 22.4123 56.0882 22.2629C56.1487 22.1135 56.1768 21.9512 56.1699 21.7885C56.1632 21.6257 56.1215 21.4668 56.049 21.3239C55.9764 21.1809 55.8743 21.0578 55.7504 20.9638" fill="white"/>
<path fill-rule="evenodd" clip-rule="evenodd" d="M43.609 22.7957C43.7261 22.7999 43.8432 22.7771 43.9511 22.7286C44.0595 22.6801 44.1568 22.6071 44.2367 22.5147C44.407 22.3238 44.5009 22.0684 44.498 21.8038C44.4999 21.5377 44.406 21.281 44.2367 21.0873C44.1583 20.9928 44.061 20.9185 43.9526 20.8699C43.8442 20.8213 43.7266 20.7995 43.609 20.8063C43.4909 20.8014 43.3733 20.824 43.2645 20.8725C43.1551 20.921 43.0569 20.9942 42.9765 21.0873C42.8048 21.2796 42.7108 21.5372 42.7152 21.8038C42.7123 21.935 42.7341 22.0655 42.7791 22.1876C42.8241 22.3096 42.8914 22.4209 42.9765 22.5147C43.0579 22.6063 43.1565 22.6786 43.2654 22.727C43.3743 22.7753 43.4914 22.7988 43.609 22.7957ZM43.609 23.1807C43.4411 23.1866 43.2736 23.1549 43.1173 23.0877C42.9616 23.0204 42.8197 22.9191 42.7021 22.7901C42.5836 22.658 42.4907 22.5016 42.4293 22.3303C42.3678 22.1589 42.3387 21.9761 42.344 21.7925C42.3363 21.607 42.3639 21.4217 42.4254 21.2482C42.4873 21.0746 42.5812 20.9165 42.7021 20.7838C42.8193 20.6532 42.9601 20.5505 43.1164 20.4822C43.2727 20.4139 43.4406 20.3817 43.609 20.3876C43.7769 20.3809 43.9444 20.4128 44.0997 20.4811C44.2555 20.5495 44.3954 20.6526 44.5111 20.7838C44.631 20.9152 44.7249 21.0712 44.7873 21.2427C44.8498 21.4141 44.8793 21.5973 44.8745 21.7813C44.8784 21.9652 44.8483 22.1481 44.7859 22.3194C44.7235 22.4906 44.6301 22.6469 44.5111 22.7789C44.394 22.9072 44.2531 23.0081 44.0978 23.0754C43.9429 23.1425 43.7764 23.1746 43.609 23.1694" fill="white"/>
<path fill-rule="evenodd" clip-rule="evenodd" d="M58.3645 22.7958C58.4816 22.7986 58.5982 22.775 58.7061 22.7266C58.814 22.6782 58.9113 22.6061 58.9922 22.5148C59.163 22.3242 59.2568 22.0687 59.2535 21.8039C59.2558 21.5377 59.162 21.2808 58.9922 21.0873C58.9113 20.9951 58.814 20.9215 58.7061 20.8712C58.5977 20.821 58.4811 20.795 58.3636 20.795C58.2455 20.795 58.1288 20.821 58.0209 20.8712C57.913 20.9215 57.8152 20.9951 57.735 21.0873C57.6488 21.1821 57.5815 21.2942 57.537 21.4173C57.492 21.5403 57.4702 21.6717 57.4732 21.8039C57.4697 21.9352 57.491 22.066 57.536 22.1882C57.581 22.3104 57.6488 22.4215 57.735 22.5148C57.8152 22.6061 57.9125 22.6782 58.0209 22.7266C58.1288 22.775 58.245 22.7986 58.3621 22.7958M58.3621 23.1808C58.1937 23.1879 58.0262 23.1567 57.87 23.0895C57.7136 23.0222 57.5723 22.9201 57.4552 22.7902C57.3357 22.6585 57.2423 22.5023 57.1809 22.3308C57.1194 22.1594 57.0908 21.9763 57.0971 21.7926C57.0889 21.6066 57.1169 21.4208 57.1799 21.2471C57.2423 21.0734 57.3377 20.9156 57.4601 20.7839C57.5767 20.6524 57.7175 20.5491 57.8743 20.4808C58.0306 20.4125 58.1985 20.3807 58.3674 20.3877C58.5358 20.382 58.7037 20.4143 58.86 20.4826C59.0163 20.5507 59.1572 20.6534 59.2743 20.7839C59.3913 20.9169 59.4828 21.0735 59.5438 21.2447C59.6043 21.4159 59.6328 21.5983 59.6275 21.7814C59.6362 22.1509 59.5094 22.5092 59.2743 22.7789C59.1567 22.9078 59.0149 23.0091 58.859 23.0763C58.7028 23.1435 58.5353 23.1752 58.3674 23.1695" fill="white"/>
<path fill-rule="evenodd" clip-rule="evenodd" d="M61.1297 22.584L61.8383 20.4316H62.0763L62.7842 22.5785L63.5371 20.4766H63.8987L62.8889 23.2669H62.6594L61.9484 21.1763L61.2399 23.2669H61.0068L59.998 20.4766H60.3799L61.1297 22.584Z" fill="white"/>
<path fill-rule="evenodd" clip-rule="evenodd" d="M66.0368 21.5201C66.0149 21.3726 65.9577 21.2339 65.8694 21.1183C65.803 21.0311 65.719 20.9619 65.6229 20.9165C65.5273 20.8711 65.4226 20.8507 65.3179 20.857C65.2163 20.8587 65.1171 20.8848 65.027 20.9334C64.9363 20.9821 64.8571 21.052 64.795 21.138C64.7117 21.2521 64.6502 21.383 64.6143 21.523L66.0368 21.5201ZM64.5625 21.8517C64.5613 21.9827 64.585 22.1126 64.6325 22.2333C64.6794 22.3542 64.7488 22.4633 64.8364 22.5542C64.921 22.6499 65.0227 22.7258 65.1359 22.7772C65.2491 22.8284 65.3703 22.8539 65.4926 22.8521C65.6448 22.8519 65.7945 22.8233 65.9376 22.7678C66.0879 22.706 66.2279 22.6166 66.3503 22.5036L66.4416 22.4278V22.8605H66.4233C66.2906 22.981 66.139 23.076 65.9765 23.1415C65.7361 23.2334 65.478 23.2542 65.2278 23.2018C64.9777 23.1494 64.7451 23.0257 64.5546 22.8436C64.4347 22.712 64.3416 22.5558 64.2795 22.3844C64.218 22.213 64.1882 22.0299 64.1943 21.8461C64.1821 21.4816 64.2929 21.1247 64.5047 20.8401C64.6088 20.7182 64.7348 20.6205 64.8754 20.553C65.0154 20.4854 65.167 20.4495 65.321 20.4474C65.475 20.4453 65.6271 20.477 65.7696 20.5407C65.9114 20.6044 66.0398 20.6986 66.1464 20.8177C66.3448 21.0887 66.4483 21.4258 66.4391 21.7702V21.8264L64.5625 21.8517Z" fill="white"/>
<path fill-rule="evenodd" clip-rule="evenodd" d="M67.6051 20.8283C67.6556 20.7312 67.7232 20.6457 67.8041 20.5768C67.8851 20.5079 67.9782 20.4568 68.0768 20.4265C68.176 20.3962 68.2801 20.3873 68.383 20.4003C68.4853 20.4133 68.5845 20.448 68.6746 20.5023C68.6746 20.5023 68.6928 20.5023 68.7032 20.5163V20.9715C68.6721 20.935 68.7032 20.9715 68.6721 20.9519C68.0787 20.595 67.7207 21.1092 67.6026 21.4464V23.2054H67.2393V20.4067H67.6051V20.8283Z" fill="white"/>
<path d="M30.5911 17.5098H23.4287V17.9537H30.5911V17.5098Z" fill="white"/>
<path d="M68.9433 17.5098H36.3574V17.9537H68.9433V17.5098Z" fill="white"/>
</g>
<defs>
<clipPath id="clip0_124_1580">
<rect width="70" height="29" fill="white"/>
</clipPath>
</defs>
</svg>
