<svg width="104" height="30" viewBox="0 0 104 30" fill="none" xmlns="http://www.w3.org/2000/svg">
<path d="M12.2557 27.3164H3.38281V27.9117H12.2557V27.3164Z" fill="white"/>
<path d="M3.38281 26.3378V25.4141H12.1841L12.2213 26.3378H3.38281Z" fill="white"/>
<path d="M3.38281 24.4187V23.1484H12.1233L12.1507 24.4187H3.38281Z" fill="white"/>
<path d="M3.38281 22.1504V20.3086H12.0332L12.0763 22.1504H3.38281Z" fill="white"/>
<path d="M3.38281 19.3422V16.4941H28.578L28.7633 19.3422H13.5162L11.7783 16.4951L11.99 19.3422H3.38281Z" fill="white"/>
<path d="M3.38281 15.5094V11.9844H18.429L20.658 15.5094L20.4492 11.9844H28.7633V15.5094H3.38281Z" fill="white"/>
<path d="M3.38281 10.9963V4.11914L13.5603 4.14762L17.7732 10.9963H3.38281Z" fill="white"/>
<path d="M28.7624 4.11914H20.4482V10.9963H28.7624V4.11914Z" fill="white"/>
<path d="M28.7632 20.3086V22.1504H15.4608L14.1992 20.3086H28.7632Z" fill="white"/>
<path d="M28.7629 23.1484V24.4187H16.9808L16.1172 23.1484H28.7629Z" fill="white"/>
<path d="M28.763 25.4141V26.3378H18.2845L17.6592 25.4141H28.763Z" fill="white"/>
<path d="M28.763 27.3184V27.9136H19.3667L18.958 27.3184H28.763Z" fill="white"/>
<path d="M39.8164 27.3164H31.1348V27.9117H39.8164V27.3164Z" fill="white"/>
<path d="M39.8164 25.4121H31.1348V26.3359H39.8164V25.4121Z" fill="white"/>
<path d="M39.8164 23.1484H31.1348V24.4187H39.8164V23.1484Z" fill="white"/>
<path d="M39.8164 20.3086H31.1348V22.1475H39.8164V20.3086Z" fill="white"/>
<path d="M39.8164 16.4941H31.1348V19.3432H39.8164V16.4941Z" fill="white"/>
<path d="M39.8164 11.9844H31.1348V15.5094H39.8164V11.9844Z" fill="white"/>
<path d="M39.8164 4.11914H31.1348V10.9963H39.8164V4.11914Z" fill="white"/>
<path d="M54.7425 3.71289H59.3495V10.9964H42.5723C44.6493 6.72431 49.3239 3.71289 54.7425 3.71289Z" fill="white"/>
<path d="M51.9002 11.9844C51.3678 12.4175 50.9378 12.9564 50.6391 13.5646C50.3404 14.1728 50.1802 14.836 50.1692 15.5094H41.4229C41.4833 14.306 41.7281 13.118 42.1491 11.9844H51.9002Z" fill="white"/>
<path d="M50.2466 16.4941C50.4531 17.6131 51.0665 18.6234 51.9757 19.3422H41.9393C41.6524 18.4167 41.4878 17.4597 41.4492 16.4941H50.2466Z" fill="white"/>
<path d="M59.3496 20.3086V22.1504H43.2369C42.8642 21.5649 42.5457 20.9485 42.2852 20.3086H59.3496Z" fill="white"/>
<path d="M59.3503 23.1484V24.4187H45.0902C44.6772 24.0219 44.2937 23.5975 43.9424 23.1484H59.3503Z" fill="white"/>
<path d="M59.3496 25.4141V26.3378H47.5969C47.1227 26.0539 46.6646 25.7456 46.2246 25.4141H59.3496Z" fill="white"/>
<path d="M59.3495 27.3184V27.8311H51.4892C51.4892 27.8311 51.2275 27.9184 49.668 27.3184H59.3495Z" fill="white"/>
<path d="M63.8242 10.6758H64.9847L67.0874 14.2208V10.6758H68.1182V15.7587H67.0115L64.855 12.1521V15.7587H63.8242V10.6758Z" fill="white"/>
<path d="M70.5527 13.4732C70.6921 13.4616 70.8298 13.4326 70.9613 13.3868C71.0243 13.3695 71.08 13.333 71.1198 13.2827C71.1595 13.2324 71.1822 13.1711 71.1828 13.1077C71.1895 13.0443 71.1767 12.9805 71.1467 12.924C71.1167 12.8674 71.0702 12.8204 71.0133 12.7887C70.8573 12.7214 70.6866 12.6912 70.5153 12.7004C70.2712 12.7004 70.0969 12.7583 69.9947 12.8722C69.9152 12.9726 69.865 13.092 69.8497 13.2178H68.8611C68.8703 12.925 68.9731 12.6422 69.1548 12.408C69.4264 12.0757 69.8932 11.9099 70.5557 11.9106C70.9528 11.9035 71.3455 11.9878 71.7028 12.1564C72.038 12.3184 72.205 12.6264 72.2044 13.0801V14.8042C72.2044 14.9248 72.2044 15.0691 72.2124 15.239C72.2093 15.3303 72.2301 15.4207 72.2729 15.502C72.3121 15.5518 72.3641 15.5908 72.424 15.615V15.7593H71.3057C71.2758 15.6905 71.2537 15.6189 71.2397 15.5457C71.228 15.4792 71.2195 15.4033 71.2115 15.3187C71.0684 15.4666 70.9032 15.593 70.7215 15.6937C70.4915 15.818 70.2315 15.8812 69.9684 15.877C69.6472 15.8887 69.3334 15.7849 69.0863 15.5856C68.8538 15.3957 68.7363 15.1156 68.7363 14.7596C68.7363 14.2982 68.9248 13.963 69.2979 13.7561C69.5818 13.6212 69.8889 13.539 70.2039 13.514L70.5527 13.4732ZM71.1791 13.9317C71.1173 13.97 71.0519 14.0018 70.9833 14.0266C70.894 14.0568 70.8016 14.0793 70.7087 14.0941L70.4756 14.1358C70.3122 14.1563 70.1532 14.2015 70.0051 14.2697C69.9274 14.3098 69.8638 14.3704 69.821 14.4444C69.7782 14.5184 69.758 14.6027 69.7629 14.6874C69.7561 14.755 69.7665 14.8231 69.7922 14.8863C69.8179 14.9494 69.8583 15.0058 69.9109 15.051C70.0137 15.1272 70.1403 15.1668 70.2694 15.163C70.4909 15.1632 70.7068 15.0969 70.8879 14.9732C71.0769 14.8488 71.1742 14.6229 71.1822 14.2944L71.1791 13.9317Z" fill="white"/>
<path d="M72.6191 12.7343V12.0345H73.1648V10.9902H74.1785V12.0345H74.8148V12.7343H74.1785V14.7203C74.1785 14.8751 74.1981 14.9719 74.2403 15.0051C74.2825 15.0384 74.4049 15.0621 74.6129 15.0621H74.7108C74.745 15.0621 74.7793 15.0621 74.8086 15.0564V15.7912L74.3186 15.8083C73.8341 15.8235 73.5038 15.7447 73.3257 15.5672C73.2107 15.4542 73.1538 15.2823 73.1538 15.0459V12.7343H72.6191Z" fill="white"/>
<path d="M76.5781 11.5512H75.5381V10.6445H76.5781V11.5512ZM75.5381 12.0002H76.5781V15.7588H75.5381V12.0002Z" fill="white"/>
<path d="M80.6364 15.3015C80.3067 15.6919 79.8044 15.8872 79.1308 15.8872C78.4573 15.8872 77.955 15.6919 77.6241 15.3015C77.3029 14.8966 77.1279 14.4001 77.1279 13.8892C77.1279 13.3784 77.3029 12.8819 77.6241 12.4771C77.9544 12.0796 78.4567 11.8809 79.1308 11.8809C79.805 11.8809 80.3073 12.0796 80.6364 12.4771C80.9576 12.8822 81.1313 13.3786 81.1313 13.8892C81.1313 14.4 80.9576 14.8963 80.6364 15.3015ZM79.8172 14.7574C79.9763 14.553 80.0565 14.2625 80.0571 13.8859C80.0577 13.5094 79.9775 13.2195 79.8172 13.0163C79.731 12.9207 79.6245 12.844 79.5059 12.7915C79.3866 12.7389 79.2569 12.7117 79.126 12.7117C78.995 12.7117 78.8653 12.7389 78.7461 12.7915C78.6274 12.844 78.5209 12.9207 78.4347 13.0163C78.2732 13.2195 78.1924 13.5094 78.193 13.8859C78.1936 14.2625 78.2744 14.553 78.4347 14.7574C78.5203 14.8537 78.6268 14.9308 78.7461 14.9838C78.8653 15.0367 78.995 15.064 79.126 15.064C79.2569 15.064 79.3866 15.0367 79.5059 14.9838C79.6252 14.9308 79.7316 14.8537 79.8172 14.7574Z" fill="white"/>
<path d="M84.9503 12.2172C85.2072 12.4204 85.3357 12.7577 85.3357 13.2292V15.7602H84.2847V13.4741C84.2932 13.3184 84.2657 13.1628 84.2045 13.0184C84.1067 12.8286 83.9103 12.7289 83.6319 12.7289C83.2881 12.7289 83.052 12.8704 82.9235 13.1533C82.8519 13.3349 82.8183 13.5286 82.8256 13.7229V15.7602H81.7979V12.0083H82.7914V12.5561C82.8905 12.3982 83.0165 12.2573 83.1633 12.1393C83.3964 11.9809 83.6772 11.9009 83.9617 11.9115C84.3183 11.8966 84.6689 12.0049 84.9503 12.2172Z" fill="white"/>
<path d="M87.7657 13.4732C87.9052 13.4616 88.0428 13.4326 88.1743 13.3868C88.2373 13.3695 88.293 13.333 88.3328 13.2828C88.3725 13.2325 88.3952 13.1711 88.3958 13.1077C88.4025 13.0444 88.3897 12.9806 88.3597 12.924C88.3297 12.8674 88.2832 12.8204 88.2263 12.7887C88.0703 12.7216 87.9003 12.6914 87.7296 12.7004C87.4843 12.7004 87.3099 12.7584 87.2077 12.8723C87.1288 12.9729 87.0787 13.0922 87.0627 13.2179H86.0741C86.0845 12.9252 86.1867 12.6426 86.3678 12.408C86.6406 12.0758 87.1074 11.9099 87.7687 11.9106C88.1658 11.9034 88.5585 11.9877 88.9158 12.1565C89.251 12.3185 89.4187 12.6264 89.4187 13.0802V14.8043C89.4187 14.9248 89.4187 15.0691 89.4254 15.2391C89.4229 15.3302 89.4437 15.4206 89.4859 15.502C89.5251 15.5517 89.5771 15.5906 89.6371 15.615V15.7593H88.5188C88.4888 15.6906 88.4668 15.6189 88.4527 15.5457C88.4411 15.4793 88.4325 15.4033 88.4245 15.3188C88.2814 15.4667 88.1162 15.593 87.9345 15.6938C87.7051 15.8181 87.4457 15.8813 87.1827 15.8771C86.8615 15.8887 86.547 15.7848 86.3005 15.5856C86.0686 15.3913 85.9518 15.116 85.9512 14.7596C85.9512 14.2982 86.1384 13.9637 86.5122 13.7561C86.7954 13.6212 87.1031 13.5391 87.4176 13.5141L87.7657 13.4732ZM88.3921 13.9318C88.3303 13.97 88.2649 14.0018 88.1957 14.0267C88.107 14.057 88.0147 14.0795 87.9217 14.0941L87.6886 14.1359C87.5252 14.1565 87.3662 14.2017 87.2175 14.2698C87.1411 14.3101 87.0774 14.3708 87.0346 14.4447C86.9918 14.5187 86.9716 14.6029 86.9765 14.6875C86.9698 14.755 86.9802 14.8231 87.0052 14.8862C87.0309 14.9494 87.0713 15.0059 87.1239 15.0511C87.2267 15.1272 87.3533 15.1668 87.4824 15.1631C87.7045 15.163 87.9204 15.0967 88.1021 14.9732C88.29 14.8488 88.3872 14.6229 88.3958 14.2944L88.3921 13.9318Z" fill="white"/>
<path d="M91.2812 10.6758H90.2559V15.7596H91.2812V10.6758Z" fill="white"/>
<path d="M64.8523 16.6387H63.7529V21.7216H64.8523V16.6387Z" fill="white"/>
<path d="M68.8897 18.1792C69.1448 18.3824 69.2733 18.7197 69.2739 19.1912V21.7222H68.2223V19.4361C68.2302 19.2806 68.2021 19.1253 68.1409 18.9814C68.0424 18.7916 67.8467 18.6909 67.5689 18.6909C67.2239 18.6909 66.9878 18.8333 66.8587 19.1162C66.7871 19.2979 66.7541 19.4915 66.7608 19.6859V21.7203H65.7373V17.9703H66.729V18.519C66.8287 18.3609 66.9547 18.2197 67.1015 18.1013C67.334 17.9429 67.6142 17.8632 67.8987 17.8745C68.2559 17.8592 68.6071 17.9672 68.8897 18.1792Z" fill="white"/>
<path d="M71.7741 16.5925L71.9894 16.6077V17.408C71.9319 17.4014 71.8359 17.3957 71.7007 17.3919C71.6499 17.3849 71.5985 17.3892 71.5496 17.4044C71.5012 17.4195 71.4572 17.445 71.4199 17.4792C71.3703 17.5354 71.3434 17.6067 71.3428 17.6805V17.9976H72.0151V18.6915H71.3428V21.722H70.326V18.6915H69.751V17.9976H70.3107V17.7527C70.3107 17.3501 70.3817 17.0729 70.523 16.921C70.6711 16.6957 71.0302 16.5833 71.6016 16.584C71.6658 16.584 71.7258 16.584 71.7778 16.5887" fill="white"/>
<path d="M75.7975 21.2654C75.466 21.6572 74.9643 21.8531 74.292 21.8531C73.6172 21.8531 73.1156 21.6575 72.7852 21.2654C72.4634 20.8607 72.2891 20.3644 72.2891 19.8537C72.2891 19.343 72.4634 18.8467 72.7852 18.442C73.1168 18.0376 73.6135 17.8477 74.292 17.8477C74.9698 17.8477 75.4678 18.0461 75.7975 18.4439C76.1181 18.8488 76.2924 19.3451 76.2924 19.8556C76.2924 20.3661 76.1181 20.8624 75.7975 21.2673M74.9778 20.7242C75.138 20.5198 75.2182 20.2293 75.2182 19.8527C75.2182 19.4762 75.138 19.1863 74.9778 18.9831C74.8921 18.8875 74.7857 18.8108 74.6664 18.7583C74.5471 18.7057 74.418 18.6785 74.2871 18.6785C74.1562 18.6785 74.0265 18.7057 73.9072 18.7583C73.7879 18.8108 73.6821 18.8875 73.5958 18.9831C73.4337 19.1869 73.3529 19.4768 73.3529 19.8527C73.3529 20.2287 73.4337 20.5192 73.5958 20.7242C73.6814 20.8205 73.7879 20.8976 73.9066 20.9506C74.0259 21.0035 74.1556 21.0308 74.2871 21.0308C74.418 21.0308 74.5477 21.0035 74.667 20.9506C74.7863 20.8976 74.8921 20.8205 74.9778 20.7242Z" fill="white"/>
<path d="M79.1291 17.875C79.1419 17.875 79.1713 17.875 79.2172 17.8807V18.8918C79.1523 18.8861 79.0948 18.8804 79.0446 18.8785H78.9223C78.51 18.8785 78.2328 19.0073 78.0921 19.2649C78.012 19.4098 77.9728 19.6313 77.9734 19.9295V21.7256H76.9463V17.9661H77.9263V18.6231C78.0352 18.4317 78.1741 18.258 78.3387 18.1086C78.5522 17.9474 78.8177 17.8655 79.0881 17.8779H79.1358" fill="white"/>
<path d="M84.6325 17.9777C84.8118 18.0504 84.969 18.1668 85.0883 18.3156C85.2027 18.4563 85.2792 18.6224 85.311 18.7989C85.3391 18.9821 85.3508 19.1672 85.3459 19.3524L85.3391 21.7257H84.2893V19.3286C84.2948 19.2077 84.2698 19.0874 84.2178 18.9774C84.1272 18.8027 83.9596 18.7153 83.7149 18.7153C83.5932 18.7053 83.4708 18.7324 83.365 18.793C83.2597 18.8536 83.1765 18.9446 83.127 19.0533C83.0683 19.1897 83.0401 19.3366 83.0444 19.4843V21.722H82.0154V19.4843C82.0252 19.3192 82.0001 19.154 81.9426 18.9983C81.8576 18.816 81.6881 18.7257 81.4361 18.7257C81.1418 18.7257 80.946 18.816 80.8482 18.9983C80.7851 19.1447 80.7582 19.3033 80.7699 19.4615V21.7239H79.7305V17.9701H80.7203V18.5188C80.8151 18.361 80.9369 18.2198 81.08 18.1011C81.3033 17.9628 81.5609 17.8867 81.8258 17.8812C82.09 17.8757 82.3513 17.9409 82.5801 18.0698C82.7299 18.1902 82.8462 18.3458 82.9172 18.5217C83.0346 18.3189 83.2071 18.1515 83.4163 18.0375C83.6347 17.9328 83.8758 17.8798 84.1199 17.8827C84.2948 17.8827 84.4686 17.915 84.6313 17.9777" fill="white"/>
<path d="M87.7657 19.4381C87.9052 19.4259 88.0428 19.3966 88.1743 19.3508C88.2373 19.3335 88.293 19.297 88.3328 19.2467C88.3725 19.1965 88.3952 19.1351 88.3958 19.0717C88.4025 19.0084 88.3903 18.9445 88.3597 18.8879C88.3297 18.8313 88.2832 18.7843 88.2263 18.7527C88.0703 18.6863 87.8997 18.6565 87.7296 18.6654C87.4843 18.6654 87.3099 18.7223 87.2077 18.8372C87.1288 18.9374 87.0787 19.0564 87.0627 19.1818H86.0741C86.0845 18.8891 86.1867 18.6066 86.3678 18.372C86.6406 18.041 87.1074 17.8755 87.7687 17.8755C88.1658 17.8678 88.5585 17.9513 88.9158 18.1195C89.251 18.2828 89.4187 18.591 89.4187 19.0442V20.7692C89.4187 20.8888 89.4187 21.0322 89.4254 21.2021C89.4223 21.2936 89.4431 21.3844 89.4859 21.466C89.5251 21.5159 89.5771 21.5552 89.6371 21.58V21.7233H88.5188C88.4888 21.6546 88.4668 21.583 88.4527 21.5097C88.4411 21.4432 88.4325 21.3673 88.4245 21.2828C88.2814 21.4323 88.1162 21.5603 87.9345 21.6625C87.7051 21.7868 87.4457 21.85 87.1827 21.8458C86.8615 21.8573 86.5476 21.7539 86.3005 21.5552C86.068 21.3597 85.9512 21.0806 85.9512 20.7284C85.9512 20.2657 86.1384 19.9312 86.5122 19.7249C86.7954 19.5903 87.1031 19.5085 87.4176 19.4837L87.7657 19.4381ZM88.3921 19.8958C88.3303 19.9336 88.2643 19.9654 88.1957 19.9907C88.1064 20.0204 88.0147 20.0432 87.9217 20.059L87.6886 20.0999C87.5252 20.1202 87.3662 20.1658 87.2175 20.2347C87.1411 20.2747 87.0774 20.3352 87.0346 20.409C86.9918 20.4829 86.9716 20.567 86.9765 20.6515C86.9698 20.719 86.9796 20.7871 87.0052 20.8503C87.0309 20.9135 87.0713 20.9699 87.1239 21.0151C87.2267 21.0913 87.3533 21.1308 87.4824 21.1271C87.7045 21.127 87.9204 21.0607 88.1021 20.9372C88.29 20.8129 88.3872 20.5869 88.3958 20.2574L88.3921 19.8958Z" fill="white"/>
<path d="M89.832 18.7027V18.0021H90.3747V16.9492H91.3884V17.9983H92.0234V18.7027H91.3884V20.6888C91.3884 20.8435 91.4079 20.9385 91.4495 20.9736C91.4905 21.0088 91.6147 21.0306 91.8227 21.0306C91.8539 21.0306 91.8863 21.0306 91.9206 21.0306C91.9549 21.0306 91.9891 21.0306 92.0185 21.0258V21.7606L91.5346 21.7777C91.0494 21.7948 90.7197 21.7132 90.5423 21.5366C90.4267 21.4246 90.3698 21.2518 90.3698 21.0154V18.7027H89.832Z" fill="white"/>
<path d="M93.792 17.515H92.752V16.6074H93.792V17.515ZM92.752 17.9631H93.792V21.7217H92.752V17.9631Z" fill="white"/>
<path d="M96.9271 19.3122C96.9099 19.1758 96.8586 19.0456 96.7784 18.9325C96.6634 18.7796 96.4841 18.7046 96.2419 18.7046C95.8962 18.7046 95.6601 18.8688 95.5322 19.1973C95.4582 19.4213 95.4252 19.6562 95.4344 19.8913C95.4252 20.1167 95.4588 20.3419 95.5322 20.5559C95.5775 20.6976 95.6699 20.8207 95.7953 20.9057C95.9207 20.9907 96.0718 21.0326 96.2248 21.0248C96.464 21.0248 96.634 20.9622 96.735 20.8349C96.8426 20.6944 96.9063 20.5271 96.9197 20.3527H97.9652C97.9377 20.6607 97.8196 20.9547 97.6263 21.2005C97.3057 21.6305 96.8286 21.8451 96.1991 21.8451C95.5696 21.8451 95.104 21.6656 94.8073 21.3077C94.51 20.9498 94.3613 20.4837 94.3613 19.9122C94.3613 19.2666 94.5247 18.765 94.8513 18.4075C95.178 18.0499 95.6313 17.8704 96.2107 17.8691C96.7025 17.8691 97.1051 17.9749 97.4183 18.1862C97.7309 18.397 97.9163 18.772 97.9744 19.3075L96.9271 19.3122Z" fill="white"/>
<path d="M99.3926 20.5232C99.3993 20.6583 99.4489 20.7883 99.5339 20.8953C99.6612 21.0263 99.8973 21.0918 100.242 21.0918C100.407 21.0986 100.572 21.069 100.724 21.0054C100.775 20.9851 100.819 20.9514 100.85 20.9082C100.882 20.8649 100.901 20.8139 100.905 20.7609C100.909 20.7078 100.896 20.6549 100.871 20.608C100.845 20.5611 100.806 20.5222 100.758 20.4956C100.663 20.4368 100.306 20.3377 99.6869 20.1985C99.2421 20.0922 98.9283 19.9602 98.746 19.8026C98.5637 19.645 98.4725 19.4229 98.4725 19.1257C98.4719 18.9546 98.5104 18.7856 98.5845 18.6304C98.6591 18.4752 98.7674 18.3378 98.9026 18.2276C99.1871 17.9783 99.5878 17.8535 100.105 17.8535C100.595 17.8535 100.994 17.9485 101.301 18.1383C101.609 18.3282 101.791 18.6501 101.832 19.1086H100.808C100.801 19.0007 100.762 18.8969 100.696 18.8096C100.584 18.6754 100.392 18.6086 100.119 18.6092C99.8973 18.6092 99.7383 18.6425 99.6428 18.7089C99.6006 18.7335 99.5657 18.768 99.5407 18.8091C99.5162 18.8502 99.5021 18.8967 99.5009 18.9444C99.4978 18.995 99.5107 19.0452 99.5376 19.0887C99.5645 19.1322 99.6043 19.1669 99.6514 19.1883C99.7523 19.2415 100.109 19.3323 100.721 19.4608C101.129 19.5533 101.435 19.6925 101.638 19.8785C101.737 19.9697 101.815 20.0796 101.867 20.2014C101.919 20.3232 101.944 20.4541 101.941 20.5858C101.945 20.7599 101.908 20.9327 101.833 21.0909C101.758 21.249 101.646 21.3884 101.506 21.4982C101.212 21.7336 100.771 21.8513 100.164 21.8513C99.5578 21.8513 99.0922 21.7269 98.7986 21.4773C98.6573 21.3606 98.5441 21.2149 98.4682 21.0507C98.3918 20.8865 98.3544 20.7079 98.3587 20.5279L99.3926 20.5232Z" fill="white"/>
<path d="M64.3488 23.3541C64.7739 22.9364 65.3166 22.7272 65.9754 22.7266C66.8576 22.7266 67.5024 23.0069 67.9098 23.5677C68.1209 23.8446 68.2469 24.1737 68.2732 24.5171H67.1665C67.1182 24.3167 67.0252 24.1289 66.8949 23.9664C66.6992 23.7449 66.4049 23.6341 66.0128 23.6341C65.8292 23.6287 65.6475 23.6687 65.4842 23.7504C65.3209 23.8322 65.182 23.9529 65.0804 24.1012C64.8535 24.4139 64.7391 24.855 64.7385 25.4246C64.7378 25.9943 64.8584 26.4212 65.0994 26.7053C65.2071 26.8405 65.3459 26.9493 65.505 27.0233C65.6641 27.0973 65.8384 27.1344 66.0146 27.1316C66.3951 27.1316 66.6845 27.0098 66.8833 26.7661C67.0148 26.5896 67.1084 26.389 67.158 26.1766H68.2616C68.1864 26.6926 67.93 27.1679 67.5361 27.5227C67.1439 27.8708 66.6441 28.0446 66.0366 28.0439C65.2835 28.0439 64.6914 27.8095 64.2594 27.3404C63.8275 26.8715 63.6128 26.2253 63.6153 25.4018C63.6153 24.5158 63.8612 23.8319 64.3524 23.3503" fill="white"/>
<path d="M71.5553 24.2198C71.8312 24.3386 72.0667 24.5317 72.2325 24.7761C72.3971 25.0082 72.5035 25.274 72.5445 25.5527C72.5757 25.8002 72.5874 26.0496 72.5788 26.2989H69.7237C69.7402 26.6786 69.8772 26.9432 70.133 27.0925C70.3036 27.1901 70.4994 27.2388 70.6976 27.233C70.9026 27.2429 71.1038 27.182 71.2666 27.0612C71.354 26.9897 71.4256 26.9015 71.477 26.802H72.5231C72.4956 27.0261 72.369 27.252 72.1438 27.4818C71.7927 27.8469 71.3027 28.0299 70.6731 28.0305C70.1715 28.0368 69.6827 27.8733 69.2924 27.5682C68.8941 27.26 68.6953 26.7581 68.6953 26.0625C68.6953 25.4112 68.8752 24.9119 69.2343 24.5643C69.594 24.2169 70.0608 24.0432 70.6352 24.0432C70.9515 24.0389 71.2653 24.099 71.5565 24.2198M70.0253 25.0685C69.8717 25.229 69.7763 25.433 69.7518 25.6505H71.5162C71.5149 25.5387 71.4905 25.4285 71.4434 25.3264C71.3969 25.2243 71.3283 25.1327 71.2439 25.0571C71.0739 24.9194 70.8573 24.847 70.6358 24.8539C70.5245 24.847 70.4125 24.8625 70.3073 24.8994C70.2027 24.9363 70.1067 24.9939 70.0253 25.0685Z" fill="white"/>
<path d="M76.1797 24.3579C76.4366 24.563 76.5651 24.8991 76.5651 25.3709V27.9019H75.5153V25.6158C75.5232 25.4599 75.4951 25.3042 75.4333 25.1601C75.3348 24.9703 75.139 24.8753 74.8625 24.8753C74.5175 24.8753 74.2813 25.0168 74.1517 25.2997C74.0807 25.4814 74.047 25.675 74.0538 25.8693V27.9038H73.0254V24.15H74.0177V24.6987C74.1168 24.5404 74.2428 24.3992 74.3902 24.281C74.6233 24.1226 74.9035 24.0429 75.188 24.0541C75.5446 24.039 75.8952 24.1467 76.1778 24.3579" fill="white"/>
<path d="M77.0439 24.8797V24.1791H77.5896V23.1348H78.6033V24.1791H79.2396V24.8797H78.6033V26.8677C78.6033 27.0214 78.6235 27.1164 78.6651 27.1525C78.7049 27.1914 78.8297 27.2094 79.0383 27.2094H79.1362L79.2347 27.2037V27.9385L78.744 27.9556C78.2601 27.9708 77.9298 27.8911 77.7524 27.7135C77.638 27.6015 77.5805 27.4281 77.5799 27.1933V24.8797H77.0439Z" fill="white"/>
<path d="M81.997 24.0568L82.0857 24.0616V25.0688C82.0215 25.0622 81.9621 25.0574 81.9126 25.0555C81.8624 25.0537 81.822 25.0508 81.7908 25.0508C81.3791 25.0508 81.1044 25.1809 80.9607 25.4381C80.8811 25.5834 80.842 25.8055 80.842 26.1074V27.9037H79.8105V24.1451H80.7912V24.7992C80.9001 24.6079 81.0402 24.4348 81.2054 24.2866C81.4183 24.1256 81.6832 24.0437 81.9523 24.0559H82.0007" fill="white"/>
<path d="M85.1648 24.2198C85.4407 24.3386 85.6756 24.5317 85.8414 24.7761C86.006 25.0081 86.113 25.2739 86.154 25.5527C86.1852 25.8002 86.1962 26.0496 86.1871 26.2988H83.335C83.3503 26.6786 83.4867 26.9432 83.7437 27.0925C83.9144 27.1898 84.1101 27.2385 84.3083 27.233C84.5127 27.2426 84.7145 27.1817 84.8779 27.0612C84.9654 26.9894 85.0369 26.9012 85.0883 26.802H86.1332C86.1069 27.0261 85.9791 27.252 85.7552 27.4818C85.4028 27.8472 84.9128 28.0305 84.2845 28.0305C83.7828 28.0365 83.2953 27.873 82.9043 27.5682C82.5067 27.2599 82.3073 26.758 82.3066 26.0625C82.3066 25.4112 82.4865 24.9118 82.8468 24.5643C83.2065 24.2169 83.6733 24.0432 84.2472 24.0432C84.5641 24.039 84.8779 24.0991 85.1685 24.2198M83.6354 25.0685C83.4831 25.2293 83.3876 25.4332 83.3632 25.6505H85.1275C85.1263 25.5387 85.1012 25.4283 85.0541 25.3263C85.0076 25.2242 84.9391 25.1326 84.854 25.0571C84.684 24.9192 84.468 24.8468 84.2465 24.8539C84.1346 24.8472 84.0226 24.8628 83.9174 24.8997C83.8122 24.9366 83.7168 24.9941 83.6354 25.0685Z" fill="white"/>
<path d="M86.7666 8.94644C86.6571 8.78408 86.3751 8.39672 85.8043 7.61732C85.165 6.74864 84.9026 6.34514 84.7998 6.15812L85.5052 5.69198C85.5517 5.79851 85.6067 5.90136 85.6703 5.99958C85.6973 6.05294 85.737 6.0992 85.786 6.1346C85.8355 6.16994 85.893 6.19328 85.9536 6.20276H85.9787C86.0203 6.20444 86.0613 6.19292 86.0949 6.16994C86.1292 6.14696 86.1543 6.11378 86.1671 6.0755C86.1775 6.03392 86.1824 5.99115 86.1818 5.94831V4.90401H85.1797V4.13597H87.5197L87.412 3.99357C87.3778 3.948 87.3551 3.91477 87.3411 3.89863C87.2126 3.68139 87.1508 3.43301 87.163 3.1828C87.1655 3.01596 87.2071 2.85187 87.2848 2.70288C87.3625 2.5539 87.4738 2.4239 87.6109 2.32268C87.8959 2.10622 88.2844 1.99609 88.7646 1.99609C89.2822 1.99609 90.031 2.26002 90.5406 2.85052C90.8489 3.21762 91.0961 3.62885 91.2741 4.06951V8.92364H90.269V4.90401H89.2969V8.92364H88.296V6.8654H87.8666L87.442 6.14294L88.296 6.15146V4.90401H87.1796V6.05372C87.179 6.23846 87.1141 6.41756 86.9942 6.56162C86.8608 6.73778 86.6669 6.86204 86.4473 6.9119L86.3121 6.9461L86.402 7.05434C86.5005 7.17302 86.6357 7.3325 86.8003 7.53848C87.0266 7.78058 87.2707 8.06636 87.5307 8.39294L86.7666 8.94644ZM88.6594 2.72236C88.6062 2.72231 88.5524 2.72611 88.4991 2.73375C88.4141 2.74363 88.3327 2.77063 88.2599 2.81299C88.1865 2.85535 88.1235 2.91213 88.0746 2.97964C88.0006 3.09308 87.9645 3.22546 87.9694 3.35938C87.9639 3.50731 88.0055 3.65333 88.0905 3.77671C88.1749 3.9001 88.2973 3.99457 88.4404 4.04673C88.5566 4.09842 88.6814 4.13052 88.8087 4.14166H89.8597C90.2763 4.14166 90.2763 4.14166 90.2763 4.04673V4.03438V4.02204C90.0977 3.4078 89.3942 2.72331 88.6637 2.72331" fill="white"/>
<path d="M82.1407 9.28364C82.0146 9.18872 81.8721 9.0596 81.7222 8.91716L81.699 8.89442H81.6653C81.6457 8.89442 81.6133 8.89442 81.5735 8.89442C81.5625 8.89442 81.5197 8.89442 81.5197 8.89442H81.3784C81.1441 8.89352 80.9159 8.82002 80.7275 8.6846C80.6479 8.63234 80.5837 8.56136 80.5403 8.47826C80.4975 8.39522 80.4766 8.30282 80.4803 8.20988C80.4797 8.13638 80.495 8.06348 80.525 7.99592C80.555 7.92842 80.599 7.8677 80.6547 7.81784C80.7819 7.70798 80.9483 7.65134 81.1184 7.66022C81.2169 7.66076 81.3148 7.67876 81.4065 7.71338C81.6641 7.82282 81.8825 8.0039 82.033 8.23364C82.0434 8.24738 82.0568 8.25842 82.0721 8.26592C82.0874 8.27336 82.1052 8.27696 82.1223 8.27636C82.1749 8.27312 82.2257 8.26022 82.2734 8.23838L82.3132 8.2232C82.4325 8.17472 82.5377 8.0984 82.6191 8.00102C82.6912 7.91444 82.742 7.81346 82.7683 7.70534C82.7946 7.59728 82.7952 7.4849 82.7714 7.37636C82.7634 7.33616 82.7457 7.29836 82.7194 7.26626C82.7035 7.24838 82.6839 7.23416 82.6619 7.22462C82.6399 7.21508 82.616 7.21046 82.5921 7.21118C82.5695 7.21148 82.5469 7.21466 82.5255 7.22066C82.4496 7.23998 82.3756 7.26572 82.3046 7.29758C82.2526 7.31846 82.2 7.3403 82.1449 7.35644C82.0636 7.38032 81.9798 7.39214 81.8947 7.39154C81.7552 7.39052 81.6176 7.3631 81.4891 7.31084C81.2793 7.22486 81.0921 7.0952 80.9404 6.9311C80.6033 6.56654 80.4393 6.25514 80.4393 5.98175C80.4387 5.90701 80.4552 5.83306 80.4883 5.76547C80.5207 5.69788 80.5696 5.63841 80.6296 5.59156C80.7415 5.49368 80.8884 5.44075 81.0395 5.44346H82.4496V4.90421H79.5927V8.92478H78.5857V4.90421H77.6466V8.92478H76.6409V7.07924L76.5253 7.12286C76.4788 7.14116 76.4292 7.15022 76.3791 7.14944C76.3381 7.14914 76.2971 7.14434 76.2567 7.13522L76.146 7.11242L76.1545 7.22828C76.1912 7.70294 76.0726 8.06942 75.8028 8.31434C75.555 8.5346 75.1935 8.64566 74.7248 8.64566C74.3382 8.64566 73.954 8.4833 73.5821 8.16242C73.1275 7.7603 72.7788 7.25954 72.5635 6.70136L73.2958 6.40424C73.3453 6.49916 73.3936 6.59408 73.4389 6.689C73.5221 6.86822 73.6182 7.04198 73.7246 7.20926C73.8806 7.44662 74.1504 7.74662 74.5462 7.83584C74.6037 7.84898 74.6624 7.85564 74.7218 7.85582C74.8539 7.86068 74.983 7.8173 75.0833 7.73426C75.2797 7.56242 75.2962 7.23014 75.1983 7.02128C75.0748 6.7517 74.7768 6.6833 74.6098 6.6653H74.5725C74.5266 6.6653 74.4404 6.6653 74.3584 6.671L74.2006 6.67766C74.1492 6.5675 74.0238 6.29786 73.9534 6.15074C74.0843 6.11558 74.2844 6.04538 74.4147 5.99884C74.5646 5.95438 74.6955 5.86328 74.7866 5.73966C74.8454 5.64661 74.8753 5.53926 74.8735 5.43017C74.879 5.34258 74.8545 5.25572 74.805 5.18238C74.7671 5.13297 74.7169 5.09332 74.6594 5.06685C74.6019 5.04038 74.5383 5.0279 74.4746 5.03048C74.277 5.03807 74.0874 5.10997 73.9369 5.2346C73.8255 5.31888 73.7246 5.41436 73.6347 5.51941C73.4169 5.05706 73.319 4.83491 73.2603 4.72858C73.2872 4.70161 73.3166 4.67684 73.3478 4.65453C73.6769 4.40906 74.08 4.27499 74.4954 4.27289C74.8405 4.26103 75.1788 4.37215 75.4449 4.58523C75.5636 4.67848 75.6578 4.79669 75.7214 4.93081C75.785 5.06492 75.8162 5.21138 75.8126 5.35896C75.8248 5.61905 75.7306 5.87325 75.5501 6.06626L75.4596 6.16118L75.5783 6.21056C75.6345 6.23714 75.6896 6.2669 75.7422 6.29978C75.8695 6.3767 76.0144 6.4631 76.1539 6.4631H76.1784C76.1784 6.4631 76.6421 6.4118 76.6421 6.26276V4.13523H81.0743H81.2224C81.4696 4.13523 81.7198 4.13523 81.9706 4.13523H82.4606H82.6674L82.5224 3.98807C82.3664 3.82573 82.1076 3.54852 82.0697 3.49251C81.9626 3.32552 81.9106 3.13135 81.9192 2.93523C81.9357 2.73175 82.0134 2.53742 82.1431 2.37662C82.2728 2.21583 82.449 2.09574 82.6484 2.03143C82.8038 1.98685 82.9653 1.96321 83.1268 1.96118C83.2669 1.95814 83.4052 1.98403 83.5336 2.03713C83.8279 2.17099 83.8573 2.25643 83.8053 2.72637L83.7722 2.71498C83.708 2.69219 83.6505 2.67415 83.5948 2.65801C83.478 2.62343 83.3575 2.60427 83.2357 2.60105C83.1336 2.59716 83.0326 2.61908 82.9421 2.66466C82.8711 2.704 82.8105 2.75882 82.7653 2.82475C82.7206 2.89067 82.6919 2.96589 82.6821 3.04441C82.668 3.12811 82.6741 3.21379 82.6992 3.295C82.7243 3.37622 82.7677 3.45088 82.8271 3.5134C82.8619 3.55134 82.8943 3.59095 82.9249 3.63206C82.9635 3.67858 83.0026 3.727 83.032 3.75643C83.1103 3.83903 83.1788 3.89978 83.2486 3.96434C83.2908 4.00137 83.333 4.04029 83.3807 4.08586V4.99535V6.07478L81.4335 6.07004L81.5105 6.20294C81.5252 6.22856 81.6537 6.44786 81.7069 6.50768L81.7381 6.5447C81.8176 6.66314 81.9339 6.75392 82.0703 6.8039C82.1082 6.8147 82.1474 6.82016 82.1871 6.82004C82.2997 6.81308 82.4104 6.78638 82.5132 6.74126L82.5683 6.72128C82.7616 6.65324 82.9653 6.61856 83.1709 6.61874C83.3 6.61184 83.4284 6.6377 83.5434 6.69374C83.7796 6.82382 83.8071 7.12856 83.8053 7.38014C83.7992 7.92794 83.5238 8.33618 82.9616 8.62766C82.9194 8.65136 82.8876 8.66846 82.8558 8.68364L82.7078 8.75102L82.8448 8.83934C83.0308 8.95802 83.6811 9.314 83.7435 9.34724L83.7251 9.37004L83.1703 9.9833L82.1407 9.28364Z" fill="white"/>
<path d="M66.3291 9.94402C66.3009 9.94432 66.2722 9.94114 66.2446 9.93454C66.1076 9.9013 66.0183 9.77032 65.932 9.64402C65.9143 9.61744 65.8972 9.59086 65.8794 9.56716L65.7638 9.40768C65.7938 9.40768 65.8256 9.40768 65.8617 9.40768C65.9235 9.40852 65.9859 9.39988 66.0452 9.382C66.0911 9.3661 66.1321 9.33934 66.1645 9.30418C66.1878 9.2788 66.2043 9.24802 66.2116 9.21472C66.2196 9.18148 66.2177 9.14686 66.2073 9.11428C66.1884 9.06256 66.1511 9.01876 66.1027 8.98996L66.085 8.97664C66.0214 8.92726 65.959 8.87698 65.8959 8.82664L63.9102 7.24594V4.13867H67.0595H71.4636V8.92444H70.4597V6.64594H69.2411V7.13962C69.2405 7.21084 69.2221 7.28086 69.1872 7.34374C69.1677 7.39516 69.1316 7.43908 69.0839 7.4689C69.0367 7.49866 68.9805 7.5127 68.9236 7.50892H68.9089C68.8349 7.50892 68.6495 7.4311 68.2231 6.94786C67.7826 6.44656 67.7331 6.27382 67.7331 6.22252C67.7331 5.95291 67.864 5.83329 68.1583 5.83329H70.4579V4.90481H67.076V6.48646C67.0785 6.5812 67.0589 6.67522 67.0173 6.7612C66.9763 6.84718 66.9151 6.92272 66.8387 6.982C66.66 7.13758 66.4294 7.2247 66.189 7.22698L65.4212 6.6061C65.8011 6.59566 65.9235 6.55954 65.9822 6.5311C66.0146 6.51388 66.0409 6.48694 66.0562 6.45424C66.0721 6.4216 66.0764 6.38494 66.0685 6.34972V4.90481H64.9086V7.03234L65.4781 7.49182L66.4686 8.29216L66.846 8.59786C66.9323 8.65864 67.0051 8.73574 67.0595 8.82454C67.1146 8.91328 67.1501 9.01186 67.1641 9.11428C67.1849 9.26434 67.1476 9.41644 67.0595 9.54154C66.9947 9.6274 66.9139 9.70078 66.8209 9.75796C66.679 9.8626 66.5089 9.92638 66.3309 9.94216" fill="white"/>
<path d="M76.9647 4.90476H76.0557V4.13672H78.3033" fill="white"/>
<path d="M69.7881 4.13672H72.0351V4.90381H71.1266" fill="white"/>
<path d="M81.6475 4.13672H83.8951V4.90381H82.9866" fill="white"/>
</svg>
