<svg width="93" height="32" viewBox="0 0 93 32" fill="none" xmlns="http://www.w3.org/2000/svg">
<rect x="0.755859" y="0.755859" width="90.7243" height="30.2414" rx="11" fill="#001E32"/>
<rect x="0.377841" y="0.377841" width="91.4803" height="30.9975" rx="11.378" stroke="white" stroke-opacity="0.12" stroke-width="0.756036"/>
<path d="M14.2171 15.4698L6.87207 23.4416C6.87276 23.443 6.87276 23.4452 6.87345 23.4466C7.09904 24.3122 7.87169 24.9492 8.78922 24.9492C9.15623 24.9492 9.50048 24.8476 9.79574 24.6699L9.8192 24.6557L18.0866 19.7774L14.2171 15.4698Z" fill="#EA4335"/>
<path d="M21.6473 14.1131L21.6404 14.1082L18.0711 11.9925L14.0498 15.6517L18.0855 19.7773L21.6356 17.6828C22.2579 17.3385 22.6808 16.6676 22.6808 15.8944C22.6808 15.1255 22.2641 14.4581 21.6473 14.1131Z" fill="#FBBC04"/>
<path d="M6.87132 8.31115C6.82717 8.47765 6.80371 8.6526 6.80371 8.8332V22.9201C6.80371 23.1007 6.82717 23.2756 6.87201 23.4414L14.4689 15.6735L6.87132 8.31115Z" fill="#4285F4"/>
<path d="M14.2706 15.877L18.0718 11.9905L9.81408 7.09454C9.51399 6.91041 9.16353 6.80459 8.78893 6.80459C7.87141 6.80459 7.09737 7.44304 6.87178 8.30936C6.87178 8.31006 6.87109 8.31077 6.87109 8.31148L14.2706 15.877Z" fill="#34A853"/>
<path d="M32.8134 9.56619C32.6672 9.25874 32.4555 9.02184 32.1783 8.85552C31.9011 8.68415 31.5785 8.59847 31.2106 8.59847C30.8426 8.59847 30.51 8.68415 30.2126 8.85552C29.9203 9.02184 29.6884 9.26378 29.5171 9.58131C29.3507 9.89381 29.2676 10.2567 29.2676 10.67C29.2676 11.0833 29.3507 11.4462 29.5171 11.7587C29.6884 12.0712 29.9203 12.3131 30.2126 12.4845C30.51 12.6508 30.8426 12.734 31.2106 12.734C31.7247 12.734 32.1481 12.5803 32.4807 12.2728C32.8134 11.9653 33.0074 11.5495 33.0629 11.0253H30.9611V10.4659H33.7962V10.9951C33.7559 11.4286 33.6198 11.8267 33.388 12.1896C33.1561 12.5475 32.8512 12.8323 32.4732 13.044C32.0951 13.2506 31.6743 13.3539 31.2106 13.3539C30.7217 13.3539 30.2756 13.2405 29.8724 13.0137C29.4692 12.7819 29.1491 12.4618 28.9122 12.0535C28.6804 11.6453 28.5645 11.1841 28.5645 10.67C28.5645 10.1559 28.6804 9.69472 28.9122 9.28646C29.1491 8.87316 29.4692 8.5531 29.8724 8.32629C30.2756 8.09444 30.7217 7.97852 31.2106 7.97852C31.77 7.97852 32.264 8.11712 32.6924 8.39434C33.1259 8.67155 33.4409 9.06217 33.6375 9.56619H32.8134Z" fill="white"/>
<path d="M35.3939 8.59847V10.36H37.3142V10.9271H35.3939V12.7415H37.541V13.3086H34.7059V8.03144H37.541V8.59847H35.3939Z" fill="white"/>
<path d="M41.8254 8.039V8.59847H40.389V13.3086H39.701V8.59847H38.257V8.039H41.8254Z" fill="white"/>
<path d="M45.3759 8.039V13.3086H44.6879V8.039H45.3759Z" fill="white"/>
<path d="M49.7919 8.039V8.59847H48.3554V13.3086H47.6674V8.59847H46.2234V8.039H49.7919Z" fill="white"/>
<path d="M55.0434 13.3615C54.5545 13.3615 54.1085 13.2481 53.7052 13.0213C53.302 12.7894 52.982 12.4694 52.7451 12.0611C52.5132 11.6478 52.3973 11.1841 52.3973 10.67C52.3973 10.1559 52.5132 9.69472 52.7451 9.28646C52.982 8.87316 53.302 8.5531 53.7052 8.32629C54.1085 8.09444 54.5545 7.97852 55.0434 7.97852C55.5374 7.97852 55.986 8.09444 56.3892 8.32629C56.7924 8.5531 57.1099 8.87064 57.3418 9.2789C57.5736 9.68716 57.6896 10.1509 57.6896 10.67C57.6896 11.1891 57.5736 11.6529 57.3418 12.0611C57.1099 12.4694 56.7924 12.7894 56.3892 13.0213C55.986 13.2481 55.5374 13.3615 55.0434 13.3615ZM55.0434 12.7642C55.4114 12.7642 55.7415 12.6785 56.0338 12.5072C56.3312 12.3358 56.5631 12.0914 56.7294 11.7738C56.9008 11.4563 56.9864 11.0883 56.9864 10.67C56.9864 10.2466 56.9008 9.87869 56.7294 9.56619C56.5631 9.24866 56.3337 9.0042 56.0414 8.83284C55.7491 8.66147 55.4164 8.57578 55.0434 8.57578C54.6704 8.57578 54.3378 8.66147 54.0455 8.83284C53.7531 9.0042 53.5213 9.24866 53.3499 9.56619C53.1836 9.87869 53.1004 10.2466 53.1004 10.67C53.1004 11.0883 53.1836 11.4563 53.3499 11.7738C53.5213 12.0914 53.7531 12.3358 54.0455 12.5072C54.3428 12.6785 54.6755 12.7642 55.0434 12.7642Z" fill="white"/>
<path d="M62.7409 13.3086H62.0529L59.2858 9.11257V13.3086H58.5978V8.03144H59.2858L62.0529 12.2199V8.03144H62.7409V13.3086Z" fill="white"/>
<path d="M72.0502 24.2563H73.2817V15.9312H72.0502V24.2563ZM83.1417 18.93L81.7301 22.5394H81.6879L80.2229 18.93H78.8964L81.0933 23.9746L79.8414 26.7809H81.125L84.5111 18.93H83.1417ZM76.1583 23.3106C75.7544 23.3106 75.1922 23.1075 75.1922 22.6034C75.1922 21.9614 75.8924 21.715 76.4975 21.715C77.0387 21.715 77.2941 21.8329 77.6227 21.9934C77.527 22.7645 76.8691 23.3106 76.1583 23.3106ZM76.3068 18.7482C75.4152 18.7482 74.4913 19.1444 74.1099 20.0228L75.2027 20.483C75.4363 20.0228 75.8712 19.8723 76.3279 19.8723C76.9648 19.8723 77.6121 20.2579 77.6227 20.9438V21.0291C77.3997 20.9005 76.9225 20.7081 76.3385 20.7081C75.1605 20.7081 73.9607 21.3614 73.9607 22.5821C73.9607 23.6962 74.9269 24.4141 76.0092 24.4141C76.8374 24.4141 77.2941 24.0392 77.5805 23.5996H77.6227V24.2423H78.8113V21.0504C78.8113 19.5726 77.7184 18.7482 76.3068 18.7482ZM68.6964 19.9436H66.945V17.0899H68.6964C69.617 17.0899 70.1397 17.8591 70.1397 18.5164C70.1397 19.1617 69.617 19.9436 68.6964 19.9436ZM68.6647 15.9312H65.7142V24.2563H66.945V21.1023H68.6647C70.0295 21.1023 71.3711 20.1047 71.3711 18.5164C71.3711 16.9281 70.0295 15.9312 68.6647 15.9312ZM52.5749 23.3119C51.7242 23.3119 51.0121 22.5934 51.0121 21.6064C51.0121 20.6088 51.7242 19.879 52.5749 19.879C53.415 19.879 54.0736 20.6088 54.0736 21.6064C54.0736 22.5934 53.415 23.3119 52.5749 23.3119ZM53.9891 19.3961H53.9462C53.6697 19.0638 53.1385 18.7635 52.4686 18.7635C51.0649 18.7635 49.7787 20.0075 49.7787 21.6064C49.7787 23.1941 51.0649 24.4281 52.4686 24.4281C53.1385 24.4281 53.6697 24.1277 53.9462 23.7841H53.9891V24.1923C53.9891 25.2758 53.415 25.8552 52.4897 25.8552C51.7348 25.8552 51.2669 25.3078 51.0755 24.8463L50.0018 25.2972C50.31 26.0484 51.129 26.9707 52.4897 26.9707C53.9357 26.9707 55.1585 26.1123 55.1585 24.0205V18.9346H53.9891V19.3961ZM56.0092 24.2563H57.2426V15.9305H56.0092V24.2563ZM59.0601 21.5099C59.0284 20.4157 59.9002 19.8576 60.5271 19.8576C61.0168 19.8576 61.4312 20.104 61.5691 20.4583L59.0601 21.5099ZM62.8877 20.5656C62.6541 19.9329 61.9413 18.7635 60.4849 18.7635C59.0389 18.7635 57.8379 19.9109 57.8379 21.5958C57.8379 23.1834 59.0284 24.4281 60.6228 24.4281C61.9097 24.4281 62.6541 23.6343 62.9623 23.1728L62.0053 22.5288C61.6866 23.0009 61.2504 23.3119 60.6228 23.3119C59.9958 23.3119 59.5491 23.0223 59.262 22.4542L63.015 20.8872L62.8877 20.5656ZM32.9873 19.6326V20.8339H35.8363C35.7511 21.5099 35.5281 22.0033 35.1882 22.3463C34.7731 22.7652 34.1244 23.2267 32.9873 23.2267C31.2326 23.2267 29.8612 21.7996 29.8612 20.0295C29.8612 18.2587 31.2326 16.8322 32.9873 16.8322C33.9337 16.8322 34.6246 17.2078 35.1348 17.6906L35.9749 16.8429C35.2621 16.1563 34.3164 15.6302 32.9873 15.6302C30.5845 15.6302 28.5645 17.6047 28.5645 20.0295C28.5645 22.4542 30.5845 24.4281 32.9873 24.4281C34.2841 24.4281 35.2621 23.9985 36.0277 23.1941C36.815 22.4003 37.0591 21.2848 37.0591 20.3831C37.0591 20.104 37.038 19.847 36.9951 19.6326H32.9873ZM40.2988 23.3119C39.4481 23.3119 38.7143 22.604 38.7143 21.5958C38.7143 20.5762 39.4481 19.879 40.2988 19.879C41.1488 19.879 41.8826 20.5762 41.8826 21.5958C41.8826 22.604 41.1488 23.3119 40.2988 23.3119ZM40.2988 18.7635C38.7459 18.7635 37.4808 19.9542 37.4808 21.5958C37.4808 23.2267 38.7459 24.4281 40.2988 24.4281C41.8509 24.4281 43.116 23.2267 43.116 21.5958C43.116 19.9542 41.8509 18.7635 40.2988 18.7635ZM46.4447 23.3119C45.5941 23.3119 44.8602 22.604 44.8602 21.5958C44.8602 20.5762 45.5941 19.879 46.4447 19.879C47.2954 19.879 48.0286 20.5762 48.0286 21.5958C48.0286 22.604 47.2954 23.3119 46.4447 23.3119ZM46.4447 18.7635C44.8926 18.7635 43.6275 19.9542 43.6275 21.5958C43.6275 23.2267 44.8926 24.4281 46.4447 24.4281C47.9969 24.4281 49.262 23.2267 49.262 21.5958C49.262 19.9542 47.9969 18.7635 46.4447 18.7635Z" fill="white"/>
</svg>
