<svg width="376" height="445" viewBox="0 0 376 445" fill="none" xmlns="http://www.w3.org/2000/svg">
<mask id="path-1-inside-1_468_1104" fill="white">
<path d="M40.9395 0C40.9395 3.70635 43.944 6.71094 47.6504 6.71094C51.3567 6.71094 54.3613 3.70635 54.3613 0H60.9248C60.9248 3.70635 63.9294 6.71094 67.6357 6.71094C71.3421 6.71094 74.3467 3.70635 74.3467 0H80.9102C80.9102 3.70635 83.9147 6.71094 87.6211 6.71094C91.3274 6.71094 94.332 3.70635 94.332 0H100.896C100.896 3.70635 103.9 6.71094 107.606 6.71094C111.313 6.71094 114.317 3.70635 114.317 0H120.881C120.881 3.70635 123.885 6.71094 127.592 6.71094C131.298 6.71094 134.303 3.70635 134.303 0H140.866C140.866 3.70635 143.871 6.71094 147.577 6.71094C151.283 6.71094 154.288 3.70635 154.288 0H160.852C160.852 3.70635 163.856 6.71094 167.562 6.71094C171.269 6.71094 174.273 3.70635 174.273 0H180.837C180.837 3.70635 183.842 6.71094 187.548 6.71094C191.254 6.71094 194.259 3.70635 194.259 0H200.822C200.822 3.70635 203.827 6.71094 207.533 6.71094C211.24 6.71094 214.244 3.70635 214.244 0H220.808C220.808 3.70635 223.812 6.71094 227.519 6.71094C231.225 6.71094 234.229 3.70635 234.229 0H240.793C240.793 3.70635 243.798 6.71094 247.504 6.71094C251.21 6.71094 254.215 3.70635 254.215 0H260.778C260.778 3.70635 263.783 6.71094 267.489 6.71094C271.196 6.71094 274.2 3.70635 274.2 0H280.764C280.764 3.70635 283.768 6.71094 287.475 6.71094C291.181 6.71094 294.186 3.70635 294.186 0H300.749C300.749 3.70635 303.754 6.71094 307.46 6.71094C311.166 6.71094 314.171 3.70635 314.171 0H320.734C320.734 3.70635 323.739 6.71094 327.445 6.71094C331.152 6.71094 334.156 3.70635 334.156 0H340.72C340.72 3.70635 343.724 6.71094 347.431 6.71094C350.287 6.71094 352.725 4.9259 353.693 2.41113C366.235 7.41661 375.097 19.6729 375.097 34V410.678C375.097 425.005 366.234 437.26 353.693 442.266C352.724 439.751 350.287 437.967 347.431 437.967C343.724 437.967 340.72 440.971 340.72 444.678H334.156C334.156 440.971 331.152 437.967 327.445 437.967C323.739 437.967 320.734 440.971 320.734 444.678H314.171C314.171 440.971 311.166 437.967 307.46 437.967C303.754 437.967 300.749 440.971 300.749 444.678H294.186C294.186 440.971 291.181 437.967 287.475 437.967C283.768 437.967 280.764 440.971 280.764 444.678H274.2C274.2 440.971 271.196 437.967 267.489 437.967C263.783 437.967 260.778 440.971 260.778 444.678H254.215C254.215 440.971 251.21 437.967 247.504 437.967C243.798 437.967 240.793 440.971 240.793 444.678H234.229C234.229 440.971 231.225 437.967 227.519 437.967C223.812 437.967 220.808 440.971 220.808 444.678H214.244C214.244 440.971 211.24 437.967 207.533 437.967C203.827 437.967 200.822 440.971 200.822 444.678H194.259C194.259 440.971 191.254 437.967 187.548 437.967C183.842 437.967 180.837 440.971 180.837 444.678H174.273C174.273 440.971 171.269 437.967 167.562 437.967C163.856 437.967 160.852 440.971 160.852 444.678H154.288C154.288 440.971 151.283 437.967 147.577 437.967C143.871 437.967 140.866 440.971 140.866 444.678H134.303C134.303 440.971 131.298 437.967 127.592 437.967C123.885 437.967 120.881 440.971 120.881 444.678H114.317C114.317 440.971 111.313 437.967 107.606 437.967C103.9 437.967 100.896 440.971 100.896 444.678H94.332C94.332 440.971 91.3274 437.967 87.6211 437.967C83.9147 437.967 80.9102 440.971 80.9102 444.678H74.3467C74.3467 440.971 71.3421 437.967 67.6357 437.967C63.9294 437.967 60.9248 440.971 60.9248 444.678H54.3613C54.3613 440.971 51.3567 437.967 47.6504 437.967C43.944 437.967 40.9395 440.971 40.9395 444.678H34.376C34.376 440.971 31.3714 437.967 27.665 437.967C24.8091 437.967 22.3714 439.751 21.4023 442.266C8.86177 437.26 6.79435e-07 425.004 0 410.678V34C3.41188e-06 19.6732 8.8616 7.41683 21.4023 2.41113C22.3712 4.9259 24.8088 6.71094 27.665 6.71094C31.3714 6.71094 34.376 3.70635 34.376 0H40.9395Z"/>
</mask>
<path d="M40.9395 0C40.9395 3.70635 43.944 6.71094 47.6504 6.71094C51.3567 6.71094 54.3613 3.70635 54.3613 0H60.9248C60.9248 3.70635 63.9294 6.71094 67.6357 6.71094C71.3421 6.71094 74.3467 3.70635 74.3467 0H80.9102C80.9102 3.70635 83.9147 6.71094 87.6211 6.71094C91.3274 6.71094 94.332 3.70635 94.332 0H100.896C100.896 3.70635 103.9 6.71094 107.606 6.71094C111.313 6.71094 114.317 3.70635 114.317 0H120.881C120.881 3.70635 123.885 6.71094 127.592 6.71094C131.298 6.71094 134.303 3.70635 134.303 0H140.866C140.866 3.70635 143.871 6.71094 147.577 6.71094C151.283 6.71094 154.288 3.70635 154.288 0H160.852C160.852 3.70635 163.856 6.71094 167.562 6.71094C171.269 6.71094 174.273 3.70635 174.273 0H180.837C180.837 3.70635 183.842 6.71094 187.548 6.71094C191.254 6.71094 194.259 3.70635 194.259 0H200.822C200.822 3.70635 203.827 6.71094 207.533 6.71094C211.24 6.71094 214.244 3.70635 214.244 0H220.808C220.808 3.70635 223.812 6.71094 227.519 6.71094C231.225 6.71094 234.229 3.70635 234.229 0H240.793C240.793 3.70635 243.798 6.71094 247.504 6.71094C251.21 6.71094 254.215 3.70635 254.215 0H260.778C260.778 3.70635 263.783 6.71094 267.489 6.71094C271.196 6.71094 274.2 3.70635 274.2 0H280.764C280.764 3.70635 283.768 6.71094 287.475 6.71094C291.181 6.71094 294.186 3.70635 294.186 0H300.749C300.749 3.70635 303.754 6.71094 307.46 6.71094C311.166 6.71094 314.171 3.70635 314.171 0H320.734C320.734 3.70635 323.739 6.71094 327.445 6.71094C331.152 6.71094 334.156 3.70635 334.156 0H340.72C340.72 3.70635 343.724 6.71094 347.431 6.71094C350.287 6.71094 352.725 4.9259 353.693 2.41113C366.235 7.41661 375.097 19.6729 375.097 34V410.678C375.097 425.005 366.234 437.26 353.693 442.266C352.724 439.751 350.287 437.967 347.431 437.967C343.724 437.967 340.72 440.971 340.72 444.678H334.156C334.156 440.971 331.152 437.967 327.445 437.967C323.739 437.967 320.734 440.971 320.734 444.678H314.171C314.171 440.971 311.166 437.967 307.46 437.967C303.754 437.967 300.749 440.971 300.749 444.678H294.186C294.186 440.971 291.181 437.967 287.475 437.967C283.768 437.967 280.764 440.971 280.764 444.678H274.2C274.2 440.971 271.196 437.967 267.489 437.967C263.783 437.967 260.778 440.971 260.778 444.678H254.215C254.215 440.971 251.21 437.967 247.504 437.967C243.798 437.967 240.793 440.971 240.793 444.678H234.229C234.229 440.971 231.225 437.967 227.519 437.967C223.812 437.967 220.808 440.971 220.808 444.678H214.244C214.244 440.971 211.24 437.967 207.533 437.967C203.827 437.967 200.822 440.971 200.822 444.678H194.259C194.259 440.971 191.254 437.967 187.548 437.967C183.842 437.967 180.837 440.971 180.837 444.678H174.273C174.273 440.971 171.269 437.967 167.562 437.967C163.856 437.967 160.852 440.971 160.852 444.678H154.288C154.288 440.971 151.283 437.967 147.577 437.967C143.871 437.967 140.866 440.971 140.866 444.678H134.303C134.303 440.971 131.298 437.967 127.592 437.967C123.885 437.967 120.881 440.971 120.881 444.678H114.317C114.317 440.971 111.313 437.967 107.606 437.967C103.9 437.967 100.896 440.971 100.896 444.678H94.332C94.332 440.971 91.3274 437.967 87.6211 437.967C83.9147 437.967 80.9102 440.971 80.9102 444.678H74.3467C74.3467 440.971 71.3421 437.967 67.6357 437.967C63.9294 437.967 60.9248 440.971 60.9248 444.678H54.3613C54.3613 440.971 51.3567 437.967 47.6504 437.967C43.944 437.967 40.9395 440.971 40.9395 444.678H34.376C34.376 440.971 31.3714 437.967 27.665 437.967C24.8091 437.967 22.3714 439.751 21.4023 442.266C8.86177 437.26 6.79435e-07 425.004 0 410.678V34C3.41188e-06 19.6732 8.8616 7.41683 21.4023 2.41113C22.3712 4.9259 24.8088 6.71094 27.665 6.71094C31.3714 6.71094 34.376 3.70635 34.376 0H40.9395Z" fill="#006FFF"/>
<path d="M40.9395 0H41.9395V-1H40.9395V0ZM54.3613 0V-1H53.3613V0H54.3613ZM60.9248 0H61.9248V-1H60.9248V0ZM74.3467 0V-1H73.3467V0H74.3467ZM80.9102 0H81.9102V-1H80.9102V0ZM94.332 0V-1H93.332V0H94.332ZM100.896 0H101.896V-1H100.896V0ZM114.317 0V-1H113.317V0H114.317ZM120.881 0H121.881V-1H120.881V0ZM134.303 0V-1H133.303V0H134.303ZM140.866 0H141.866V-1H140.866V0ZM154.288 0V-1H153.288V0H154.288ZM160.852 0H161.852V-1H160.852V0ZM174.273 0V-1H173.273V0H174.273ZM180.837 0H181.837V-1H180.837V0ZM194.259 0V-1H193.259V0H194.259ZM200.822 0H201.822V-1H200.822V0ZM214.244 0V-1H213.244V0H214.244ZM220.808 0H221.808V-1H220.808V0ZM234.229 0V-1H233.229V0H234.229ZM240.793 0H241.793V-1H240.793V0ZM254.215 0V-1H253.215V0H254.215ZM260.778 0H261.778V-1H260.778V0ZM274.2 0V-1H273.2V0H274.2ZM280.764 0H281.764V-1H280.764V0ZM294.186 0V-1H293.186V0H294.186ZM300.749 0H301.749V-1H300.749V0ZM314.171 0V-1H313.171V0H314.171ZM320.734 0H321.734V-1H320.734V0ZM334.156 0V-1H333.156V0H334.156ZM340.72 0H341.72V-1H340.72V0ZM353.693 2.41113L354.064 1.48238L353.124 1.1072L352.76 2.05164L353.693 2.41113ZM375.097 34H376.097V34H375.097ZM375.097 410.678H376.097V410.678H375.097ZM353.693 442.266L352.76 442.625L353.124 443.57L354.064 443.194L353.693 442.266ZM340.72 444.678V445.678H341.72V444.678H340.72ZM334.156 444.678H333.156V445.678H334.156V444.678ZM320.734 444.678V445.678H321.734V444.678H320.734ZM314.171 444.678H313.171V445.678H314.171V444.678ZM300.749 444.678V445.678H301.749V444.678H300.749ZM294.186 444.678H293.186V445.678H294.186V444.678ZM280.764 444.678V445.678H281.764V444.678H280.764ZM274.2 444.678H273.2V445.678H274.2V444.678ZM260.778 444.678V445.678H261.778V444.678H260.778ZM254.215 444.678H253.215V445.678H254.215V444.678ZM240.793 444.678V445.678H241.793V444.678H240.793ZM234.229 444.678H233.229V445.678H234.229V444.678ZM220.808 444.678V445.678H221.808V444.678H220.808ZM214.244 444.678H213.244V445.678H214.244V444.678ZM200.822 444.678V445.678H201.822V444.678H200.822ZM194.259 444.678H193.259V445.678H194.259V444.678ZM180.837 444.678V445.678H181.837V444.678H180.837ZM174.273 444.678H173.273V445.678H174.273V444.678ZM160.852 444.678V445.678H161.852V444.678H160.852ZM154.288 444.678H153.288V445.678H154.288V444.678ZM140.866 444.678V445.678H141.866V444.678H140.866ZM134.303 444.678H133.303V445.678H134.303V444.678ZM120.881 444.678V445.678H121.881V444.678H120.881ZM114.317 444.678H113.317V445.678H114.317V444.678ZM100.896 444.678V445.678H101.896V444.678H100.896ZM94.332 444.678H93.332V445.678H94.332V444.678ZM80.9102 444.678V445.678H81.9102V444.678H80.9102ZM74.3467 444.678H73.3467V445.678H74.3467V444.678ZM60.9248 444.678V445.678H61.9248V444.678H60.9248ZM54.3613 444.678H53.3613V445.678H54.3613V444.678ZM40.9395 444.678V445.678H41.9395V444.678H40.9395ZM34.376 444.678H33.376V445.678H34.376V444.678ZM21.4023 442.266L21.0316 443.194L21.9715 443.57L22.3354 442.625L21.4023 442.266ZM0 410.678H-1V410.678H0ZM0 34H-1V34H0ZM21.4023 2.41113L22.3355 2.05164L21.9716 1.10718L21.0316 1.48239L21.4023 2.41113ZM34.376 0V-1H33.376V0H34.376ZM40.9395 0H39.9395C39.9395 4.25863 43.3918 7.71094 47.6504 7.71094V6.71094V5.71094C44.4963 5.71094 41.9395 3.15406 41.9395 0H40.9395ZM47.6504 6.71094V7.71094C51.909 7.71094 55.3613 4.25863 55.3613 0H54.3613H53.3613C53.3613 3.15406 50.8045 5.71094 47.6504 5.71094V6.71094ZM54.3613 0V1H60.9248V0V-1H54.3613V0ZM60.9248 0H59.9248C59.9248 4.25863 63.3771 7.71094 67.6357 7.71094V6.71094V5.71094C64.4817 5.71094 61.9248 3.15406 61.9248 0H60.9248ZM67.6357 6.71094V7.71094C71.8944 7.71094 75.3467 4.25863 75.3467 0H74.3467H73.3467C73.3467 3.15406 70.7898 5.71094 67.6357 5.71094V6.71094ZM74.3467 0V1H80.9102V0V-1H74.3467V0ZM80.9102 0H79.9102C79.9102 4.25863 83.3625 7.71094 87.6211 7.71094V6.71094V5.71094C84.467 5.71094 81.9102 3.15406 81.9102 0H80.9102ZM87.6211 6.71094V7.71094C91.8797 7.71094 95.332 4.25863 95.332 0H94.332H93.332C93.332 3.15406 90.7752 5.71094 87.6211 5.71094V6.71094ZM94.332 0V1H100.896V0V-1H94.332V0ZM100.896 0H99.8955C99.8955 4.25863 103.348 7.71094 107.606 7.71094V6.71094V5.71094C104.452 5.71094 101.896 3.15406 101.896 0H100.896ZM107.606 6.71094V7.71094C111.865 7.71094 115.317 4.25863 115.317 0H114.317H113.317C113.317 3.15406 110.761 5.71094 107.606 5.71094V6.71094ZM114.317 0V1H120.881V0V-1H114.317V0ZM120.881 0H119.881C119.881 4.25863 123.333 7.71094 127.592 7.71094V6.71094V5.71094C124.438 5.71094 121.881 3.15406 121.881 0H120.881ZM127.592 6.71094V7.71094C131.85 7.71094 135.303 4.25863 135.303 0H134.303H133.303C133.303 3.15406 130.746 5.71094 127.592 5.71094V6.71094ZM134.303 0V1H140.866V0V-1H134.303V0ZM140.866 0H139.866C139.866 4.25863 143.319 7.71094 147.577 7.71094V6.71094V5.71094C144.423 5.71094 141.866 3.15406 141.866 0H140.866ZM147.577 6.71094V7.71094C151.836 7.71094 155.288 4.25863 155.288 0H154.288H153.288C153.288 3.15406 150.731 5.71094 147.577 5.71094V6.71094ZM154.288 0V1H160.852V0V-1H154.288V0ZM160.852 0H159.852C159.852 4.25863 163.304 7.71094 167.562 7.71094V6.71094V5.71094C164.408 5.71094 161.852 3.15406 161.852 0H160.852ZM167.562 6.71094V7.71094C171.821 7.71094 175.273 4.25863 175.273 0H174.273H173.273C173.273 3.15406 170.717 5.71094 167.562 5.71094V6.71094ZM174.273 0V1H180.837V0V-1H174.273V0ZM180.837 0H179.837C179.837 4.25863 183.289 7.71094 187.548 7.71094V6.71094V5.71094C184.394 5.71094 181.837 3.15406 181.837 0H180.837ZM187.548 6.71094V7.71094C191.806 7.71094 195.259 4.25863 195.259 0H194.259H193.259C193.259 3.15406 190.702 5.71094 187.548 5.71094V6.71094ZM194.259 0V1H200.822V0V-1H194.259V0ZM200.822 0H199.822C199.822 4.25863 203.275 7.71094 207.533 7.71094V6.71094V5.71094C204.379 5.71094 201.822 3.15406 201.822 0H200.822ZM207.533 6.71094V7.71094C211.792 7.71094 215.244 4.25863 215.244 0H214.244H213.244C213.244 3.15406 210.687 5.71094 207.533 5.71094V6.71094ZM214.244 0V1H220.808V0V-1H214.244V0ZM220.808 0H219.808C219.808 4.25863 223.26 7.71094 227.519 7.71094V6.71094V5.71094C224.364 5.71094 221.808 3.15406 221.808 0H220.808ZM227.519 6.71094V7.71094C231.777 7.71094 235.229 4.25863 235.229 0H234.229H233.229C233.229 3.15406 230.673 5.71094 227.519 5.71094V6.71094ZM234.229 0V1H240.793V0V-1H234.229V0ZM240.793 0H239.793C239.793 4.25863 243.245 7.71094 247.504 7.71094V6.71094V5.71094C244.35 5.71094 241.793 3.15406 241.793 0H240.793ZM247.504 6.71094V7.71094C251.763 7.71094 255.215 4.25863 255.215 0H254.215H253.215C253.215 3.15406 250.658 5.71094 247.504 5.71094V6.71094ZM254.215 0V1H260.778V0V-1H254.215V0ZM260.778 0H259.778C259.778 4.25863 263.231 7.71094 267.489 7.71094V6.71094V5.71094C264.335 5.71094 261.778 3.15406 261.778 0H260.778ZM267.489 6.71094V7.71094C271.748 7.71094 275.2 4.25863 275.2 0H274.2H273.2C273.2 3.15406 270.643 5.71094 267.489 5.71094V6.71094ZM274.2 0V1H280.764V0V-1H274.2V0ZM280.764 0H279.764C279.764 4.25863 283.216 7.71094 287.475 7.71094V6.71094V5.71094C284.321 5.71094 281.764 3.15406 281.764 0H280.764ZM287.475 6.71094V7.71094C291.733 7.71094 295.186 4.25863 295.186 0H294.186H293.186C293.186 3.15406 290.629 5.71094 287.475 5.71094V6.71094ZM294.186 0V1H300.749V0V-1H294.186V0ZM300.749 0H299.749C299.749 4.25863 303.201 7.71094 307.46 7.71094V6.71094V5.71094C304.306 5.71094 301.749 3.15406 301.749 0H300.749ZM307.46 6.71094V7.71094C311.719 7.71094 315.171 4.25863 315.171 0H314.171H313.171C313.171 3.15406 310.614 5.71094 307.46 5.71094V6.71094ZM314.171 0V1H320.734V0V-1H314.171V0ZM320.734 0H319.734C319.734 4.25863 323.187 7.71094 327.445 7.71094V6.71094V5.71094C324.291 5.71094 321.734 3.15406 321.734 0H320.734ZM327.445 6.71094V7.71094C331.704 7.71094 335.156 4.25863 335.156 0H334.156H333.156C333.156 3.15406 330.599 5.71094 327.445 5.71094V6.71094ZM334.156 0V1H340.72V0V-1H334.156V0ZM340.72 0H339.72C339.72 4.25863 343.172 7.71094 347.431 7.71094V6.71094V5.71094C344.277 5.71094 341.72 3.15406 341.72 0H340.72ZM347.431 6.71094V7.71094C350.715 7.71094 353.514 5.658 354.626 2.77063L353.693 2.41113L352.76 2.05164C351.935 4.19381 349.859 5.71094 347.431 5.71094V6.71094ZM353.693 2.41113L353.323 3.33989C365.497 8.19889 374.097 20.0959 374.097 34H375.097H376.097C376.097 19.2498 366.972 6.63434 354.064 1.48238L353.693 2.41113ZM375.097 34H374.097V410.678H375.097H376.097V34H375.097ZM375.097 410.678H374.097C374.097 424.582 365.497 436.478 353.323 441.337L353.693 442.266L354.064 443.194C366.972 438.042 376.097 425.428 376.097 410.678H375.097ZM353.693 442.266L354.626 441.906C353.514 439.019 350.714 436.967 347.431 436.967V437.967V438.967C349.859 438.967 351.935 440.484 352.76 442.625L353.693 442.266ZM347.431 437.967V436.967C343.172 436.967 339.72 440.419 339.72 444.678H340.72H341.72C341.72 441.524 344.277 438.967 347.431 438.967V437.967ZM340.72 444.678V443.678H334.156V444.678V445.678H340.72V444.678ZM334.156 444.678H335.156C335.156 440.419 331.704 436.967 327.445 436.967V437.967V438.967C330.599 438.967 333.156 441.524 333.156 444.678H334.156ZM327.445 437.967V436.967C323.187 436.967 319.734 440.419 319.734 444.678H320.734H321.734C321.734 441.524 324.291 438.967 327.445 438.967V437.967ZM320.734 444.678V443.678H314.171V444.678V445.678H320.734V444.678ZM314.171 444.678H315.171C315.171 440.419 311.719 436.967 307.46 436.967V437.967V438.967C310.614 438.967 313.171 441.524 313.171 444.678H314.171ZM307.46 437.967V436.967C303.201 436.967 299.749 440.419 299.749 444.678H300.749H301.749C301.749 441.524 304.306 438.967 307.46 438.967V437.967ZM300.749 444.678V443.678H294.186V444.678V445.678H300.749V444.678ZM294.186 444.678H295.186C295.186 440.419 291.733 436.967 287.475 436.967V437.967V438.967C290.629 438.967 293.186 441.524 293.186 444.678H294.186ZM287.475 437.967V436.967C283.216 436.967 279.764 440.419 279.764 444.678H280.764H281.764C281.764 441.524 284.321 438.967 287.475 438.967V437.967ZM280.764 444.678V443.678H274.2V444.678V445.678H280.764V444.678ZM274.2 444.678H275.2C275.2 440.419 271.748 436.967 267.489 436.967V437.967V438.967C270.643 438.967 273.2 441.524 273.2 444.678H274.2ZM267.489 437.967V436.967C263.231 436.967 259.778 440.419 259.778 444.678H260.778H261.778C261.778 441.524 264.335 438.967 267.489 438.967V437.967ZM260.778 444.678V443.678H254.215V444.678V445.678H260.778V444.678ZM254.215 444.678H255.215C255.215 440.419 251.763 436.967 247.504 436.967V437.967V438.967C250.658 438.967 253.215 441.524 253.215 444.678H254.215ZM247.504 437.967V436.967C243.245 436.967 239.793 440.419 239.793 444.678H240.793H241.793C241.793 441.524 244.35 438.967 247.504 438.967V437.967ZM240.793 444.678V443.678H234.229V444.678V445.678H240.793V444.678ZM234.229 444.678H235.229C235.229 440.419 231.777 436.967 227.519 436.967V437.967V438.967C230.673 438.967 233.229 441.524 233.229 444.678H234.229ZM227.519 437.967V436.967C223.26 436.967 219.808 440.419 219.808 444.678H220.808H221.808C221.808 441.524 224.364 438.967 227.519 438.967V437.967ZM220.808 444.678V443.678H214.244V444.678V445.678H220.808V444.678ZM214.244 444.678H215.244C215.244 440.419 211.792 436.967 207.533 436.967V437.967V438.967C210.687 438.967 213.244 441.524 213.244 444.678H214.244ZM207.533 437.967V436.967C203.275 436.967 199.822 440.419 199.822 444.678H200.822H201.822C201.822 441.524 204.379 438.967 207.533 438.967V437.967ZM200.822 444.678V443.678H194.259V444.678V445.678H200.822V444.678ZM194.259 444.678H195.259C195.259 440.419 191.806 436.967 187.548 436.967V437.967V438.967C190.702 438.967 193.259 441.524 193.259 444.678H194.259ZM187.548 437.967V436.967C183.289 436.967 179.837 440.419 179.837 444.678H180.837H181.837C181.837 441.524 184.394 438.967 187.548 438.967V437.967ZM180.837 444.678V443.678H174.273V444.678V445.678H180.837V444.678ZM174.273 444.678H175.273C175.273 440.419 171.821 436.967 167.562 436.967V437.967V438.967C170.717 438.967 173.273 441.524 173.273 444.678H174.273ZM167.562 437.967V436.967C163.304 436.967 159.852 440.419 159.852 444.678H160.852H161.852C161.852 441.524 164.408 438.967 167.562 438.967V437.967ZM160.852 444.678V443.678H154.288V444.678V445.678H160.852V444.678ZM154.288 444.678H155.288C155.288 440.419 151.836 436.967 147.577 436.967V437.967V438.967C150.731 438.967 153.288 441.524 153.288 444.678H154.288ZM147.577 437.967V436.967C143.319 436.967 139.866 440.419 139.866 444.678H140.866H141.866C141.866 441.524 144.423 438.967 147.577 438.967V437.967ZM140.866 444.678V443.678H134.303V444.678V445.678H140.866V444.678ZM134.303 444.678H135.303C135.303 440.419 131.85 436.967 127.592 436.967V437.967V438.967C130.746 438.967 133.303 441.524 133.303 444.678H134.303ZM127.592 437.967V436.967C123.333 436.967 119.881 440.419 119.881 444.678H120.881H121.881C121.881 441.524 124.438 438.967 127.592 438.967V437.967ZM120.881 444.678V443.678H114.317V444.678V445.678H120.881V444.678ZM114.317 444.678H115.317C115.317 440.419 111.865 436.967 107.606 436.967V437.967V438.967C110.761 438.967 113.317 441.524 113.317 444.678H114.317ZM107.606 437.967V436.967C103.348 436.967 99.8955 440.419 99.8955 444.678H100.896H101.896C101.896 441.524 104.452 438.967 107.606 438.967V437.967ZM100.896 444.678V443.678H94.332V444.678V445.678H100.896V444.678ZM94.332 444.678H95.332C95.332 440.419 91.8797 436.967 87.6211 436.967V437.967V438.967C90.7752 438.967 93.332 441.524 93.332 444.678H94.332ZM87.6211 437.967V436.967C83.3625 436.967 79.9102 440.419 79.9102 444.678H80.9102H81.9102C81.9102 441.524 84.467 438.967 87.6211 438.967V437.967ZM80.9102 444.678V443.678H74.3467V444.678V445.678H80.9102V444.678ZM74.3467 444.678H75.3467C75.3467 440.419 71.8944 436.967 67.6357 436.967V437.967V438.967C70.7898 438.967 73.3467 441.524 73.3467 444.678H74.3467ZM67.6357 437.967V436.967C63.3771 436.967 59.9248 440.419 59.9248 444.678H60.9248H61.9248C61.9248 441.524 64.4817 438.967 67.6357 438.967V437.967ZM60.9248 444.678V443.678H54.3613V444.678V445.678H60.9248V444.678ZM54.3613 444.678H55.3613C55.3613 440.419 51.909 436.967 47.6504 436.967V437.967V438.967C50.8045 438.967 53.3613 441.524 53.3613 444.678H54.3613ZM47.6504 437.967V436.967C43.3918 436.967 39.9395 440.419 39.9395 444.678H40.9395H41.9395C41.9395 441.524 44.4963 438.967 47.6504 438.967V437.967ZM40.9395 444.678V443.678H34.376V444.678V445.678H40.9395V444.678ZM34.376 444.678H35.376C35.376 440.419 31.9237 436.967 27.665 436.967V437.967V438.967C30.8191 438.967 33.376 441.524 33.376 444.678H34.376ZM27.665 437.967V436.967C24.3816 436.967 21.5819 439.019 20.4692 441.906L21.4023 442.266L22.3354 442.625C23.1609 440.484 25.2367 438.967 27.665 438.967V437.967ZM21.4023 442.266L21.7731 441.337C9.59946 436.478 1 424.581 1 410.678H0H-1C-0.999999 425.427 8.12408 438.042 21.0316 443.194L21.4023 442.266ZM0 410.678H1V34H0H-1V410.678H0ZM0 34H1C1 20.0962 9.59932 8.19908 21.7731 3.33988L21.4023 2.41113L21.0316 1.48239C8.12387 6.63457 -0.999996 19.2502 -1 34H0ZM21.4023 2.41113L20.4692 2.77063C21.5816 5.658 24.3811 7.71094 27.665 7.71094V6.71094V5.71094C25.2365 5.71094 23.1608 4.19381 22.3355 2.05164L21.4023 2.41113ZM27.665 6.71094V7.71094C31.9237 7.71094 35.376 4.25863 35.376 0H34.376H33.376C33.376 3.15406 30.8191 5.71094 27.665 5.71094V6.71094ZM34.376 0V1H40.9395V0V-1H34.376V0Z" fill="black" fill-opacity="0.16" mask="url(#path-1-inside-1_468_1104)"/>
</svg>
